<svg width="701" height="586" viewBox="0 0 701 586" fill="none" xmlns="http://www.w3.org/2000/svg">
<rect opacity="0.2" x="53" y="324" width="389" height="62" fill="#FF9600"/>
<rect opacity="0.2" x="184" y="156" width="302" height="62" fill="#FF9600"/>
<rect opacity="0.2" x="53" y="156" width="88" height="62" fill="#FF9600"/>
<rect opacity="0.2" x="141" y="189" width="43" height="29" fill="#FF9600"/>
<rect opacity="0.2" x="98" y="72" width="388" height="62" fill="#FF9600"/>
<rect opacity="0.2" x="53" y="240" width="174" height="62" fill="#FF9600"/>
<rect opacity="0.2" x="270" y="240" width="216" height="62" fill="#FF9600"/>
<rect opacity="0.2" x="98" y="458" width="43" height="62" fill="#FF9600"/>
<rect opacity="0.2" x="270" y="458" width="172" height="62" fill="#FF9600"/>
<rect opacity="0.2" x="184" y="458" width="43" height="62" fill="#FF9600"/>
<rect opacity="0.2" x="141" y="489" width="43" height="31" fill="#FF9600"/>
<path d="M40.5 458V519.5" stroke="#444F55"/>
<path d="M41 531.5H495" stroke="#444F55"/>
<path d="M40.5 324V385.5" stroke="#444F55"/>
<path d="M40.5 156V217.5" stroke="#444F55"/>
<path d="M40.5 240V301.5" stroke="#444F55"/>
<path d="M40.5 72V133.5" stroke="#444F55"/>
<path d="M43.486 580H44.34V570.662H47.546V569.92H40.266V570.662H43.486V580ZM48.7306 570.634C48.7306 570.956 48.9966 571.18 49.3326 571.18C49.6686 571.18 49.9066 570.956 49.9066 570.634C49.9066 570.312 49.6686 570.088 49.3326 570.088C48.9966 570.088 48.7306 570.312 48.7306 570.634ZM49.7106 572.664H48.9266V580H49.7106V572.664ZM57.0021 580H57.7441V569.92H56.9601V573.77C56.4141 573.098 55.7001 572.496 54.5381 572.496C52.5781 572.496 51.5281 574.064 51.5281 576.346C51.5281 578.6 52.4521 580.168 54.5241 580.168C55.8401 580.168 56.6381 579.384 56.9881 578.95L57.0021 580ZM56.9461 578.152C56.5681 578.614 55.8261 579.426 54.7061 579.426C52.9421 579.426 52.3681 577.844 52.3681 576.346C52.3681 574.344 53.2921 573.238 54.6361 573.238C55.7701 573.238 56.5821 574.176 56.9461 574.68V578.152ZM62.5119 570.634C62.5119 570.956 62.7779 571.18 63.1139 571.18C63.4499 571.18 63.6879 570.956 63.6879 570.634C63.6879 570.312 63.4499 570.088 63.1139 570.088C62.7779 570.088 62.5119 570.312 62.5119 570.634ZM63.4919 572.664H62.7079V580H63.4919V572.664ZM70.8561 573.35V572.664H69.4561V570.718H68.8121L68.6721 572.664L67.7761 572.832V573.35H68.6721V578.936C68.6721 579.804 69.1341 580.168 70.0021 580.168C70.3801 580.168 70.8701 580.014 71.1641 579.874L70.9821 579.286C70.7301 579.398 70.4221 579.496 70.1141 579.496C69.6381 579.496 69.4561 579.314 69.4561 578.768V573.35H70.8561ZM72.301 570.634C72.301 570.956 72.567 571.18 72.903 571.18C73.239 571.18 73.477 570.956 73.477 570.634C73.477 570.312 73.239 570.088 72.903 570.088C72.567 570.088 72.301 570.312 72.301 570.634ZM73.281 572.664H72.497V580H73.281V572.664ZM75.4344 572.664V580H76.2324V574.596C76.5964 574.148 77.3104 573.252 78.3044 573.252C79.3404 573.252 79.6204 573.966 79.6204 575.044V580H80.4324V574.568C80.7544 574.176 81.5244 573.252 82.4624 573.252C83.4984 573.252 83.7924 573.938 83.7924 575.016V580H84.5904V574.932C84.5904 573.672 84.2684 572.496 82.6724 572.496C81.6224 572.496 80.9084 573.112 80.3064 573.826C80.0964 573.084 79.6344 572.496 78.5004 572.496C77.4504 572.496 76.7364 573.112 76.1904 573.826V572.664H75.4344ZM91.73 578.614C91.016 579.202 90.386 579.44 89.546 579.44C87.838 579.44 87.068 578.264 87.054 576.514H92.22C92.22 576.43 92.22 576.206 92.22 576.024C92.22 573.658 91.282 572.496 89.448 572.496C87.46 572.496 86.2 574.022 86.2 576.36C86.2 578.964 87.488 580.168 89.476 580.168C90.428 580.168 91.282 579.902 92.094 579.174L91.73 578.614ZM87.054 575.814C87.068 575.016 87.53 573.196 89.448 573.196C90.932 573.196 91.394 574.288 91.422 575.814H87.054ZM94.6191 572.664H93.9051V580H94.7031V574.75C94.9691 574.12 95.5291 573.322 96.2711 573.322C96.4811 573.322 96.6911 573.336 96.8591 573.392L96.9711 572.594C96.7751 572.524 96.5371 572.496 96.3131 572.496C95.5571 572.496 94.9411 573.098 94.6191 573.854V572.664Z" fill="#444F55"/>
<path d="M51.5944 548.044C51.5944 544.978 52.4344 543.634 54.0024 543.634C55.5844 543.634 56.4104 544.978 56.4104 548.03C56.4104 551.124 55.5704 552.454 54.0024 552.454C52.4344 552.454 51.5944 551.096 51.5944 548.044ZM50.7824 548.044C50.7824 551.558 51.9304 553.168 53.9884 553.168C56.0464 553.168 57.2224 551.558 57.2224 548.016C57.2224 544.516 56.0604 542.92 54.0024 542.92C51.9444 542.92 50.7824 544.516 50.7824 548.044Z" fill="#444F55"/>
<path d="M14.4615 519.752C14.4615 517.124 15.1815 515.972 16.5255 515.972C17.8815 515.972 18.5895 517.124 18.5895 519.74C18.5895 522.392 17.8695 523.532 16.5255 523.532C15.1815 523.532 14.4615 522.368 14.4615 519.752ZM13.7655 519.752C13.7655 522.764 14.7495 524.144 16.5135 524.144C18.2775 524.144 19.2855 522.764 19.2855 519.728C19.2855 516.728 18.2895 515.36 16.5255 515.36C14.7615 515.36 13.7655 516.728 13.7655 519.752ZM26.3614 522.2C26.3614 521.48 26.8774 520.892 27.6094 520.892C28.3294 520.892 28.8574 521.492 28.8574 522.2C28.8574 522.932 28.3294 523.508 27.6094 523.508C26.8774 523.508 26.3614 522.944 26.3614 522.2ZM25.7614 522.212C25.7614 523.268 26.5534 524.024 27.6094 524.024C28.6534 524.024 29.4574 523.22 29.4574 522.2C29.4574 521.168 28.6654 520.376 27.6094 520.376C26.5654 520.376 25.7614 521.18 25.7614 522.212ZM21.2134 517.22C21.2134 516.488 21.7414 515.912 22.4734 515.912C23.1934 515.912 23.7334 516.464 23.7334 517.22C23.7334 517.964 23.1934 518.516 22.4734 518.516C21.7414 518.516 21.2134 518 21.2134 517.22ZM20.6254 517.232C20.6254 518.324 21.4054 519.044 22.4734 519.044C23.5054 519.044 24.3214 518.228 24.3214 517.22C24.3214 516.128 23.5174 515.396 22.4734 515.396C21.4174 515.396 20.6254 516.188 20.6254 517.232ZM22.1014 524H22.7614L28.0174 515.36H27.3574L22.1014 524Z" fill="#444F55"/>
<path d="M14.4615 385.752C14.4615 383.124 15.1815 381.972 16.5255 381.972C17.8815 381.972 18.5895 383.124 18.5895 385.74C18.5895 388.392 17.8695 389.532 16.5255 389.532C15.1815 389.532 14.4615 388.368 14.4615 385.752ZM13.7655 385.752C13.7655 388.764 14.7495 390.144 16.5135 390.144C18.2775 390.144 19.2855 388.764 19.2855 385.728C19.2855 382.728 18.2895 381.36 16.5255 381.36C14.7615 381.36 13.7655 382.728 13.7655 385.752ZM26.3614 388.2C26.3614 387.48 26.8774 386.892 27.6094 386.892C28.3294 386.892 28.8574 387.492 28.8574 388.2C28.8574 388.932 28.3294 389.508 27.6094 389.508C26.8774 389.508 26.3614 388.944 26.3614 388.2ZM25.7614 388.212C25.7614 389.268 26.5534 390.024 27.6094 390.024C28.6534 390.024 29.4574 389.22 29.4574 388.2C29.4574 387.168 28.6654 386.376 27.6094 386.376C26.5654 386.376 25.7614 387.18 25.7614 388.212ZM21.2134 383.22C21.2134 382.488 21.7414 381.912 22.4734 381.912C23.1934 381.912 23.7334 382.464 23.7334 383.22C23.7334 383.964 23.1934 384.516 22.4734 384.516C21.7414 384.516 21.2134 384 21.2134 383.22ZM20.6254 383.232C20.6254 384.324 21.4054 385.044 22.4734 385.044C23.5054 385.044 24.3214 384.228 24.3214 383.22C24.3214 382.128 23.5174 381.396 22.4734 381.396C21.4174 381.396 20.6254 382.188 20.6254 383.232ZM22.1014 390H22.7614L28.0174 381.36H27.3574L22.1014 390Z" fill="#444F55"/>
<path d="M14.4615 217.752C14.4615 215.124 15.1815 213.972 16.5255 213.972C17.8815 213.972 18.5895 215.124 18.5895 217.74C18.5895 220.392 17.8695 221.532 16.5255 221.532C15.1815 221.532 14.4615 220.368 14.4615 217.752ZM13.7655 217.752C13.7655 220.764 14.7495 222.144 16.5135 222.144C18.2775 222.144 19.2855 220.764 19.2855 217.728C19.2855 214.728 18.2895 213.36 16.5255 213.36C14.7615 213.36 13.7655 214.728 13.7655 217.752ZM26.3614 220.2C26.3614 219.48 26.8774 218.892 27.6094 218.892C28.3294 218.892 28.8574 219.492 28.8574 220.2C28.8574 220.932 28.3294 221.508 27.6094 221.508C26.8774 221.508 26.3614 220.944 26.3614 220.2ZM25.7614 220.212C25.7614 221.268 26.5534 222.024 27.6094 222.024C28.6534 222.024 29.4574 221.22 29.4574 220.2C29.4574 219.168 28.6654 218.376 27.6094 218.376C26.5654 218.376 25.7614 219.18 25.7614 220.212ZM21.2134 215.22C21.2134 214.488 21.7414 213.912 22.4734 213.912C23.1934 213.912 23.7334 214.464 23.7334 215.22C23.7334 215.964 23.1934 216.516 22.4734 216.516C21.7414 216.516 21.2134 216 21.2134 215.22ZM20.6254 215.232C20.6254 216.324 21.4054 217.044 22.4734 217.044C23.5054 217.044 24.3214 216.228 24.3214 215.22C24.3214 214.128 23.5174 213.396 22.4734 213.396C21.4174 213.396 20.6254 214.188 20.6254 215.232ZM22.1014 222H22.7614L28.0174 213.36H27.3574L22.1014 222Z" fill="#444F55"/>
<path d="M14.4615 301.752C14.4615 299.124 15.1815 297.972 16.5255 297.972C17.8815 297.972 18.5895 299.124 18.5895 301.74C18.5895 304.392 17.8695 305.532 16.5255 305.532C15.1815 305.532 14.4615 304.368 14.4615 301.752ZM13.7655 301.752C13.7655 304.764 14.7495 306.144 16.5135 306.144C18.2775 306.144 19.2855 304.764 19.2855 301.728C19.2855 298.728 18.2895 297.36 16.5255 297.36C14.7615 297.36 13.7655 298.728 13.7655 301.752ZM26.3614 304.2C26.3614 303.48 26.8774 302.892 27.6094 302.892C28.3294 302.892 28.8574 303.492 28.8574 304.2C28.8574 304.932 28.3294 305.508 27.6094 305.508C26.8774 305.508 26.3614 304.944 26.3614 304.2ZM25.7614 304.212C25.7614 305.268 26.5534 306.024 27.6094 306.024C28.6534 306.024 29.4574 305.22 29.4574 304.2C29.4574 303.168 28.6654 302.376 27.6094 302.376C26.5654 302.376 25.7614 303.18 25.7614 304.212ZM21.2134 299.22C21.2134 298.488 21.7414 297.912 22.4734 297.912C23.1934 297.912 23.7334 298.464 23.7334 299.22C23.7334 299.964 23.1934 300.516 22.4734 300.516C21.7414 300.516 21.2134 300 21.2134 299.22ZM20.6254 299.232C20.6254 300.324 21.4054 301.044 22.4734 301.044C23.5054 301.044 24.3214 300.228 24.3214 299.22C24.3214 298.128 23.5174 297.396 22.4734 297.396C21.4174 297.396 20.6254 298.188 20.6254 299.232ZM22.1014 306H22.7614L28.0174 297.36H27.3574L22.1014 306Z" fill="#444F55"/>
<path d="M14.4615 133.752C14.4615 131.124 15.1815 129.972 16.5255 129.972C17.8815 129.972 18.5895 131.124 18.5895 133.74C18.5895 136.392 17.8695 137.532 16.5255 137.532C15.1815 137.532 14.4615 136.368 14.4615 133.752ZM13.7655 133.752C13.7655 136.764 14.7495 138.144 16.5135 138.144C18.2775 138.144 19.2855 136.764 19.2855 133.728C19.2855 130.728 18.2895 129.36 16.5255 129.36C14.7615 129.36 13.7655 130.728 13.7655 133.752ZM26.3614 136.2C26.3614 135.48 26.8774 134.892 27.6094 134.892C28.3294 134.892 28.8574 135.492 28.8574 136.2C28.8574 136.932 28.3294 137.508 27.6094 137.508C26.8774 137.508 26.3614 136.944 26.3614 136.2ZM25.7614 136.212C25.7614 137.268 26.5534 138.024 27.6094 138.024C28.6534 138.024 29.4574 137.22 29.4574 136.2C29.4574 135.168 28.6654 134.376 27.6094 134.376C26.5654 134.376 25.7614 135.18 25.7614 136.212ZM21.2134 131.22C21.2134 130.488 21.7414 129.912 22.4734 129.912C23.1934 129.912 23.7334 130.464 23.7334 131.22C23.7334 131.964 23.1934 132.516 22.4734 132.516C21.7414 132.516 21.2134 132 21.2134 131.22ZM20.6254 131.232C20.6254 132.324 21.4054 133.044 22.4734 133.044C23.5054 133.044 24.3214 132.228 24.3214 131.22C24.3214 130.128 23.5174 129.396 22.4734 129.396C21.4174 129.396 20.6254 130.188 20.6254 131.232ZM22.1014 138H22.7614L28.0174 129.36H27.3574L22.1014 138Z" fill="#444F55"/>
<path d="M7.42622 489.688H8.02622L8.07422 489.1C8.43422 488.704 8.98622 488.356 9.79022 488.356C10.9422 488.356 11.4942 489.232 11.4942 490.372C11.4942 491.86 10.6182 492.52 9.41822 492.52C8.75822 492.52 8.13422 492.268 7.43822 491.86L7.12622 492.412C7.89422 492.94 8.79422 493.144 9.49022 493.144C11.0262 493.144 12.1902 492.196 12.1902 490.312C12.1902 488.74 11.3982 487.744 9.86222 487.744C9.10622 487.744 8.47022 488.056 8.12222 488.416L8.35022 485.152H11.7102L11.7462 484.492H7.77422L7.42622 489.688ZM14.4615 488.752C14.4615 486.124 15.1815 484.972 16.5255 484.972C17.8815 484.972 18.5895 486.124 18.5895 488.74C18.5895 491.392 17.8695 492.532 16.5255 492.532C15.1815 492.532 14.4615 491.368 14.4615 488.752ZM13.7655 488.752C13.7655 491.764 14.7495 493.144 16.5135 493.144C18.2775 493.144 19.2855 491.764 19.2855 488.728C19.2855 485.728 18.2895 484.36 16.5255 484.36C14.7615 484.36 13.7655 485.728 13.7655 488.752ZM26.3614 491.2C26.3614 490.48 26.8774 489.892 27.6094 489.892C28.3294 489.892 28.8574 490.492 28.8574 491.2C28.8574 491.932 28.3294 492.508 27.6094 492.508C26.8774 492.508 26.3614 491.944 26.3614 491.2ZM25.7614 491.212C25.7614 492.268 26.5534 493.024 27.6094 493.024C28.6534 493.024 29.4574 492.22 29.4574 491.2C29.4574 490.168 28.6654 489.376 27.6094 489.376C26.5654 489.376 25.7614 490.18 25.7614 491.212ZM21.2134 486.22C21.2134 485.488 21.7414 484.912 22.4734 484.912C23.1934 484.912 23.7334 485.464 23.7334 486.22C23.7334 486.964 23.1934 487.516 22.4734 487.516C21.7414 487.516 21.2134 487 21.2134 486.22ZM20.6254 486.232C20.6254 487.324 21.4054 488.044 22.4734 488.044C23.5054 488.044 24.3214 487.228 24.3214 486.22C24.3214 485.128 23.5174 484.396 22.4734 484.396C21.4174 484.396 20.6254 485.188 20.6254 486.232ZM22.1014 493H22.7614L28.0174 484.36H27.3574L22.1014 493Z" fill="#444F55"/>
<path d="M7.42622 355.688H8.02622L8.07422 355.1C8.43422 354.704 8.98622 354.356 9.79022 354.356C10.9422 354.356 11.4942 355.232 11.4942 356.372C11.4942 357.86 10.6182 358.52 9.41822 358.52C8.75822 358.52 8.13422 358.268 7.43822 357.86L7.12622 358.412C7.89422 358.94 8.79422 359.144 9.49022 359.144C11.0262 359.144 12.1902 358.196 12.1902 356.312C12.1902 354.74 11.3982 353.744 9.86222 353.744C9.10622 353.744 8.47022 354.056 8.12222 354.416L8.35022 351.152H11.7102L11.7462 350.492H7.77422L7.42622 355.688ZM14.4615 354.752C14.4615 352.124 15.1815 350.972 16.5255 350.972C17.8815 350.972 18.5895 352.124 18.5895 354.74C18.5895 357.392 17.8695 358.532 16.5255 358.532C15.1815 358.532 14.4615 357.368 14.4615 354.752ZM13.7655 354.752C13.7655 357.764 14.7495 359.144 16.5135 359.144C18.2775 359.144 19.2855 357.764 19.2855 354.728C19.2855 351.728 18.2895 350.36 16.5255 350.36C14.7615 350.36 13.7655 351.728 13.7655 354.752ZM26.3614 357.2C26.3614 356.48 26.8774 355.892 27.6094 355.892C28.3294 355.892 28.8574 356.492 28.8574 357.2C28.8574 357.932 28.3294 358.508 27.6094 358.508C26.8774 358.508 26.3614 357.944 26.3614 357.2ZM25.7614 357.212C25.7614 358.268 26.5534 359.024 27.6094 359.024C28.6534 359.024 29.4574 358.22 29.4574 357.2C29.4574 356.168 28.6654 355.376 27.6094 355.376C26.5654 355.376 25.7614 356.18 25.7614 357.212ZM21.2134 352.22C21.2134 351.488 21.7414 350.912 22.4734 350.912C23.1934 350.912 23.7334 351.464 23.7334 352.22C23.7334 352.964 23.1934 353.516 22.4734 353.516C21.7414 353.516 21.2134 353 21.2134 352.22ZM20.6254 352.232C20.6254 353.324 21.4054 354.044 22.4734 354.044C23.5054 354.044 24.3214 353.228 24.3214 352.22C24.3214 351.128 23.5174 350.396 22.4734 350.396C21.4174 350.396 20.6254 351.188 20.6254 352.232ZM22.1014 359H22.7614L28.0174 350.36H27.3574L22.1014 359Z" fill="#444F55"/>
<path d="M7.42622 187.688H8.02622L8.07422 187.1C8.43422 186.704 8.98622 186.356 9.79022 186.356C10.9422 186.356 11.4942 187.232 11.4942 188.372C11.4942 189.86 10.6182 190.52 9.41822 190.52C8.75822 190.52 8.13422 190.268 7.43822 189.86L7.12622 190.412C7.89422 190.94 8.79422 191.144 9.49022 191.144C11.0262 191.144 12.1902 190.196 12.1902 188.312C12.1902 186.74 11.3982 185.744 9.86222 185.744C9.10622 185.744 8.47022 186.056 8.12222 186.416L8.35022 183.152H11.7102L11.7462 182.492H7.77422L7.42622 187.688ZM14.4615 186.752C14.4615 184.124 15.1815 182.972 16.5255 182.972C17.8815 182.972 18.5895 184.124 18.5895 186.74C18.5895 189.392 17.8695 190.532 16.5255 190.532C15.1815 190.532 14.4615 189.368 14.4615 186.752ZM13.7655 186.752C13.7655 189.764 14.7495 191.144 16.5135 191.144C18.2775 191.144 19.2855 189.764 19.2855 186.728C19.2855 183.728 18.2895 182.36 16.5255 182.36C14.7615 182.36 13.7655 183.728 13.7655 186.752ZM26.3614 189.2C26.3614 188.48 26.8774 187.892 27.6094 187.892C28.3294 187.892 28.8574 188.492 28.8574 189.2C28.8574 189.932 28.3294 190.508 27.6094 190.508C26.8774 190.508 26.3614 189.944 26.3614 189.2ZM25.7614 189.212C25.7614 190.268 26.5534 191.024 27.6094 191.024C28.6534 191.024 29.4574 190.22 29.4574 189.2C29.4574 188.168 28.6654 187.376 27.6094 187.376C26.5654 187.376 25.7614 188.18 25.7614 189.212ZM21.2134 184.22C21.2134 183.488 21.7414 182.912 22.4734 182.912C23.1934 182.912 23.7334 183.464 23.7334 184.22C23.7334 184.964 23.1934 185.516 22.4734 185.516C21.7414 185.516 21.2134 185 21.2134 184.22ZM20.6254 184.232C20.6254 185.324 21.4054 186.044 22.4734 186.044C23.5054 186.044 24.3214 185.228 24.3214 184.22C24.3214 183.128 23.5174 182.396 22.4734 182.396C21.4174 182.396 20.6254 183.188 20.6254 184.232ZM22.1014 191H22.7614L28.0174 182.36H27.3574L22.1014 191Z" fill="#444F55"/>
<path d="M7.42622 271.688H8.02622L8.07422 271.1C8.43422 270.704 8.98622 270.356 9.79022 270.356C10.9422 270.356 11.4942 271.232 11.4942 272.372C11.4942 273.86 10.6182 274.52 9.41822 274.52C8.75822 274.52 8.13422 274.268 7.43822 273.86L7.12622 274.412C7.89422 274.94 8.79422 275.144 9.49022 275.144C11.0262 275.144 12.1902 274.196 12.1902 272.312C12.1902 270.74 11.3982 269.744 9.86222 269.744C9.10622 269.744 8.47022 270.056 8.12222 270.416L8.35022 267.152H11.7102L11.7462 266.492H7.77422L7.42622 271.688ZM14.4615 270.752C14.4615 268.124 15.1815 266.972 16.5255 266.972C17.8815 266.972 18.5895 268.124 18.5895 270.74C18.5895 273.392 17.8695 274.532 16.5255 274.532C15.1815 274.532 14.4615 273.368 14.4615 270.752ZM13.7655 270.752C13.7655 273.764 14.7495 275.144 16.5135 275.144C18.2775 275.144 19.2855 273.764 19.2855 270.728C19.2855 267.728 18.2895 266.36 16.5255 266.36C14.7615 266.36 13.7655 267.728 13.7655 270.752ZM26.3614 273.2C26.3614 272.48 26.8774 271.892 27.6094 271.892C28.3294 271.892 28.8574 272.492 28.8574 273.2C28.8574 273.932 28.3294 274.508 27.6094 274.508C26.8774 274.508 26.3614 273.944 26.3614 273.2ZM25.7614 273.212C25.7614 274.268 26.5534 275.024 27.6094 275.024C28.6534 275.024 29.4574 274.22 29.4574 273.2C29.4574 272.168 28.6654 271.376 27.6094 271.376C26.5654 271.376 25.7614 272.18 25.7614 273.212ZM21.2134 268.22C21.2134 267.488 21.7414 266.912 22.4734 266.912C23.1934 266.912 23.7334 267.464 23.7334 268.22C23.7334 268.964 23.1934 269.516 22.4734 269.516C21.7414 269.516 21.2134 269 21.2134 268.22ZM20.6254 268.232C20.6254 269.324 21.4054 270.044 22.4734 270.044C23.5054 270.044 24.3214 269.228 24.3214 268.22C24.3214 267.128 23.5174 266.396 22.4734 266.396C21.4174 266.396 20.6254 267.188 20.6254 268.232ZM22.1014 275H22.7614L28.0174 266.36H27.3574L22.1014 275Z" fill="#444F55"/>
<path d="M7.42622 103.688H8.02622L8.07422 103.1C8.43422 102.704 8.98622 102.356 9.79022 102.356C10.9422 102.356 11.4942 103.232 11.4942 104.372C11.4942 105.86 10.6182 106.52 9.41822 106.52C8.75822 106.52 8.13422 106.268 7.43822 105.86L7.12622 106.412C7.89422 106.94 8.79422 107.144 9.49022 107.144C11.0262 107.144 12.1902 106.196 12.1902 104.312C12.1902 102.74 11.3982 101.744 9.86222 101.744C9.10622 101.744 8.47022 102.056 8.12222 102.416L8.35022 99.152H11.7102L11.7462 98.492H7.77422L7.42622 103.688ZM14.4615 102.752C14.4615 100.124 15.1815 98.972 16.5255 98.972C17.8815 98.972 18.5895 100.124 18.5895 102.74C18.5895 105.392 17.8695 106.532 16.5255 106.532C15.1815 106.532 14.4615 105.368 14.4615 102.752ZM13.7655 102.752C13.7655 105.764 14.7495 107.144 16.5135 107.144C18.2775 107.144 19.2855 105.764 19.2855 102.728C19.2855 99.728 18.2895 98.36 16.5255 98.36C14.7615 98.36 13.7655 99.728 13.7655 102.752ZM26.3614 105.2C26.3614 104.48 26.8774 103.892 27.6094 103.892C28.3294 103.892 28.8574 104.492 28.8574 105.2C28.8574 105.932 28.3294 106.508 27.6094 106.508C26.8774 106.508 26.3614 105.944 26.3614 105.2ZM25.7614 105.212C25.7614 106.268 26.5534 107.024 27.6094 107.024C28.6534 107.024 29.4574 106.22 29.4574 105.2C29.4574 104.168 28.6654 103.376 27.6094 103.376C26.5654 103.376 25.7614 104.18 25.7614 105.212ZM21.2134 100.22C21.2134 99.488 21.7414 98.912 22.4734 98.912C23.1934 98.912 23.7334 99.464 23.7334 100.22C23.7334 100.964 23.1934 101.516 22.4734 101.516C21.7414 101.516 21.2134 101 21.2134 100.22ZM20.6254 100.232C20.6254 101.324 21.4054 102.044 22.4734 102.044C23.5054 102.044 24.3214 101.228 24.3214 100.22C24.3214 99.128 23.5174 98.396 22.4734 98.396C21.4174 98.396 20.6254 99.188 20.6254 100.232ZM22.1014 107H22.7614L28.0174 98.36H27.3574L22.1014 107Z" fill="#444F55"/>
<path d="M3.14531 462.448H1.21331V463H5.52131V462.448H3.82931V454.492H3.34931C2.74931 455.152 1.75331 455.704 0.949313 455.896L1.05731 456.448C1.83731 456.292 2.52131 455.968 3.14531 455.536V462.448ZM7.28963 458.752C7.28963 456.124 8.00963 454.972 9.35363 454.972C10.7096 454.972 11.4176 456.124 11.4176 458.74C11.4176 461.392 10.6976 462.532 9.35363 462.532C8.00963 462.532 7.28963 461.368 7.28963 458.752ZM6.59363 458.752C6.59363 461.764 7.57763 463.144 9.34163 463.144C11.1056 463.144 12.1136 461.764 12.1136 458.728C12.1136 455.728 11.1176 454.36 9.35363 454.36C7.58963 454.36 6.59363 455.728 6.59363 458.752ZM14.4615 458.752C14.4615 456.124 15.1815 454.972 16.5255 454.972C17.8815 454.972 18.5895 456.124 18.5895 458.74C18.5895 461.392 17.8695 462.532 16.5255 462.532C15.1815 462.532 14.4615 461.368 14.4615 458.752ZM13.7655 458.752C13.7655 461.764 14.7495 463.144 16.5135 463.144C18.2775 463.144 19.2855 461.764 19.2855 458.728C19.2855 455.728 18.2895 454.36 16.5255 454.36C14.7615 454.36 13.7655 455.728 13.7655 458.752ZM26.3614 461.2C26.3614 460.48 26.8774 459.892 27.6094 459.892C28.3294 459.892 28.8574 460.492 28.8574 461.2C28.8574 461.932 28.3294 462.508 27.6094 462.508C26.8774 462.508 26.3614 461.944 26.3614 461.2ZM25.7614 461.212C25.7614 462.268 26.5534 463.024 27.6094 463.024C28.6534 463.024 29.4574 462.22 29.4574 461.2C29.4574 460.168 28.6654 459.376 27.6094 459.376C26.5654 459.376 25.7614 460.18 25.7614 461.212ZM21.2134 456.22C21.2134 455.488 21.7414 454.912 22.4734 454.912C23.1934 454.912 23.7334 455.464 23.7334 456.22C23.7334 456.964 23.1934 457.516 22.4734 457.516C21.7414 457.516 21.2134 457 21.2134 456.22ZM20.6254 456.232C20.6254 457.324 21.4054 458.044 22.4734 458.044C23.5054 458.044 24.3214 457.228 24.3214 456.22C24.3214 455.128 23.5174 454.396 22.4734 454.396C21.4174 454.396 20.6254 455.188 20.6254 456.232ZM22.1014 463H22.7614L28.0174 454.36H27.3574L22.1014 463Z" fill="#444F55"/>
<path d="M3.14531 328.448H1.21331V329H5.52131V328.448H3.82931V320.492H3.34931C2.74931 321.152 1.75331 321.704 0.949313 321.896L1.05731 322.448C1.83731 322.292 2.52131 321.968 3.14531 321.536V328.448ZM7.28963 324.752C7.28963 322.124 8.00963 320.972 9.35363 320.972C10.7096 320.972 11.4176 322.124 11.4176 324.74C11.4176 327.392 10.6976 328.532 9.35363 328.532C8.00963 328.532 7.28963 327.368 7.28963 324.752ZM6.59363 324.752C6.59363 327.764 7.57763 329.144 9.34163 329.144C11.1056 329.144 12.1136 327.764 12.1136 324.728C12.1136 321.728 11.1176 320.36 9.35363 320.36C7.58963 320.36 6.59363 321.728 6.59363 324.752ZM14.4615 324.752C14.4615 322.124 15.1815 320.972 16.5255 320.972C17.8815 320.972 18.5895 322.124 18.5895 324.74C18.5895 327.392 17.8695 328.532 16.5255 328.532C15.1815 328.532 14.4615 327.368 14.4615 324.752ZM13.7655 324.752C13.7655 327.764 14.7495 329.144 16.5135 329.144C18.2775 329.144 19.2855 327.764 19.2855 324.728C19.2855 321.728 18.2895 320.36 16.5255 320.36C14.7615 320.36 13.7655 321.728 13.7655 324.752ZM26.3614 327.2C26.3614 326.48 26.8774 325.892 27.6094 325.892C28.3294 325.892 28.8574 326.492 28.8574 327.2C28.8574 327.932 28.3294 328.508 27.6094 328.508C26.8774 328.508 26.3614 327.944 26.3614 327.2ZM25.7614 327.212C25.7614 328.268 26.5534 329.024 27.6094 329.024C28.6534 329.024 29.4574 328.22 29.4574 327.2C29.4574 326.168 28.6654 325.376 27.6094 325.376C26.5654 325.376 25.7614 326.18 25.7614 327.212ZM21.2134 322.22C21.2134 321.488 21.7414 320.912 22.4734 320.912C23.1934 320.912 23.7334 321.464 23.7334 322.22C23.7334 322.964 23.1934 323.516 22.4734 323.516C21.7414 323.516 21.2134 323 21.2134 322.22ZM20.6254 322.232C20.6254 323.324 21.4054 324.044 22.4734 324.044C23.5054 324.044 24.3214 323.228 24.3214 322.22C24.3214 321.128 23.5174 320.396 22.4734 320.396C21.4174 320.396 20.6254 321.188 20.6254 322.232ZM22.1014 329H22.7614L28.0174 320.36H27.3574L22.1014 329Z" fill="#444F55"/>
<path d="M3.14531 160.448H1.21331V161H5.52131V160.448H3.82931V152.492H3.34931C2.74931 153.152 1.75331 153.704 0.949313 153.896L1.05731 154.448C1.83731 154.292 2.52131 153.968 3.14531 153.536V160.448ZM7.28963 156.752C7.28963 154.124 8.00963 152.972 9.35363 152.972C10.7096 152.972 11.4176 154.124 11.4176 156.74C11.4176 159.392 10.6976 160.532 9.35363 160.532C8.00963 160.532 7.28963 159.368 7.28963 156.752ZM6.59363 156.752C6.59363 159.764 7.57763 161.144 9.34163 161.144C11.1056 161.144 12.1136 159.764 12.1136 156.728C12.1136 153.728 11.1176 152.36 9.35363 152.36C7.58963 152.36 6.59363 153.728 6.59363 156.752ZM14.4615 156.752C14.4615 154.124 15.1815 152.972 16.5255 152.972C17.8815 152.972 18.5895 154.124 18.5895 156.74C18.5895 159.392 17.8695 160.532 16.5255 160.532C15.1815 160.532 14.4615 159.368 14.4615 156.752ZM13.7655 156.752C13.7655 159.764 14.7495 161.144 16.5135 161.144C18.2775 161.144 19.2855 159.764 19.2855 156.728C19.2855 153.728 18.2895 152.36 16.5255 152.36C14.7615 152.36 13.7655 153.728 13.7655 156.752ZM26.3614 159.2C26.3614 158.48 26.8774 157.892 27.6094 157.892C28.3294 157.892 28.8574 158.492 28.8574 159.2C28.8574 159.932 28.3294 160.508 27.6094 160.508C26.8774 160.508 26.3614 159.944 26.3614 159.2ZM25.7614 159.212C25.7614 160.268 26.5534 161.024 27.6094 161.024C28.6534 161.024 29.4574 160.22 29.4574 159.2C29.4574 158.168 28.6654 157.376 27.6094 157.376C26.5654 157.376 25.7614 158.18 25.7614 159.212ZM21.2134 154.22C21.2134 153.488 21.7414 152.912 22.4734 152.912C23.1934 152.912 23.7334 153.464 23.7334 154.22C23.7334 154.964 23.1934 155.516 22.4734 155.516C21.7414 155.516 21.2134 155 21.2134 154.22ZM20.6254 154.232C20.6254 155.324 21.4054 156.044 22.4734 156.044C23.5054 156.044 24.3214 155.228 24.3214 154.22C24.3214 153.128 23.5174 152.396 22.4734 152.396C21.4174 152.396 20.6254 153.188 20.6254 154.232ZM22.1014 161H22.7614L28.0174 152.36H27.3574L22.1014 161Z" fill="#444F55"/>
<path d="M3.14531 244.448H1.21331V245H5.52131V244.448H3.82931V236.492H3.34931C2.74931 237.152 1.75331 237.704 0.949313 237.896L1.05731 238.448C1.83731 238.292 2.52131 237.968 3.14531 237.536V244.448ZM7.28963 240.752C7.28963 238.124 8.00963 236.972 9.35363 236.972C10.7096 236.972 11.4176 238.124 11.4176 240.74C11.4176 243.392 10.6976 244.532 9.35363 244.532C8.00963 244.532 7.28963 243.368 7.28963 240.752ZM6.59363 240.752C6.59363 243.764 7.57763 245.144 9.34163 245.144C11.1056 245.144 12.1136 243.764 12.1136 240.728C12.1136 237.728 11.1176 236.36 9.35363 236.36C7.58963 236.36 6.59363 237.728 6.59363 240.752ZM14.4615 240.752C14.4615 238.124 15.1815 236.972 16.5255 236.972C17.8815 236.972 18.5895 238.124 18.5895 240.74C18.5895 243.392 17.8695 244.532 16.5255 244.532C15.1815 244.532 14.4615 243.368 14.4615 240.752ZM13.7655 240.752C13.7655 243.764 14.7495 245.144 16.5135 245.144C18.2775 245.144 19.2855 243.764 19.2855 240.728C19.2855 237.728 18.2895 236.36 16.5255 236.36C14.7615 236.36 13.7655 237.728 13.7655 240.752ZM26.3614 243.2C26.3614 242.48 26.8774 241.892 27.6094 241.892C28.3294 241.892 28.8574 242.492 28.8574 243.2C28.8574 243.932 28.3294 244.508 27.6094 244.508C26.8774 244.508 26.3614 243.944 26.3614 243.2ZM25.7614 243.212C25.7614 244.268 26.5534 245.024 27.6094 245.024C28.6534 245.024 29.4574 244.22 29.4574 243.2C29.4574 242.168 28.6654 241.376 27.6094 241.376C26.5654 241.376 25.7614 242.18 25.7614 243.212ZM21.2134 238.22C21.2134 237.488 21.7414 236.912 22.4734 236.912C23.1934 236.912 23.7334 237.464 23.7334 238.22C23.7334 238.964 23.1934 239.516 22.4734 239.516C21.7414 239.516 21.2134 239 21.2134 238.22ZM20.6254 238.232C20.6254 239.324 21.4054 240.044 22.4734 240.044C23.5054 240.044 24.3214 239.228 24.3214 238.22C24.3214 237.128 23.5174 236.396 22.4734 236.396C21.4174 236.396 20.6254 237.188 20.6254 238.232ZM22.1014 245H22.7614L28.0174 236.36H27.3574L22.1014 245Z" fill="#444F55"/>
<path d="M3.14531 76.448H1.21331V77H5.52131V76.448H3.82931V68.492H3.34931C2.74931 69.152 1.75331 69.704 0.949313 69.896L1.05731 70.448C1.83731 70.292 2.52131 69.968 3.14531 69.536V76.448ZM7.28963 72.752C7.28963 70.124 8.00963 68.972 9.35363 68.972C10.7096 68.972 11.4176 70.124 11.4176 72.74C11.4176 75.392 10.6976 76.532 9.35363 76.532C8.00963 76.532 7.28963 75.368 7.28963 72.752ZM6.59363 72.752C6.59363 75.764 7.57763 77.144 9.34163 77.144C11.1056 77.144 12.1136 75.764 12.1136 72.728C12.1136 69.728 11.1176 68.36 9.35363 68.36C7.58963 68.36 6.59363 69.728 6.59363 72.752ZM14.4615 72.752C14.4615 70.124 15.1815 68.972 16.5255 68.972C17.8815 68.972 18.5895 70.124 18.5895 72.74C18.5895 75.392 17.8695 76.532 16.5255 76.532C15.1815 76.532 14.4615 75.368 14.4615 72.752ZM13.7655 72.752C13.7655 75.764 14.7495 77.144 16.5135 77.144C18.2775 77.144 19.2855 75.764 19.2855 72.728C19.2855 69.728 18.2895 68.36 16.5255 68.36C14.7615 68.36 13.7655 69.728 13.7655 72.752ZM26.3614 75.2C26.3614 74.48 26.8774 73.892 27.6094 73.892C28.3294 73.892 28.8574 74.492 28.8574 75.2C28.8574 75.932 28.3294 76.508 27.6094 76.508C26.8774 76.508 26.3614 75.944 26.3614 75.2ZM25.7614 75.212C25.7614 76.268 26.5534 77.024 27.6094 77.024C28.6534 77.024 29.4574 76.22 29.4574 75.2C29.4574 74.168 28.6654 73.376 27.6094 73.376C26.5654 73.376 25.7614 74.18 25.7614 75.212ZM21.2134 70.22C21.2134 69.488 21.7414 68.912 22.4734 68.912C23.1934 68.912 23.7334 69.464 23.7334 70.22C23.7334 70.964 23.1934 71.516 22.4734 71.516C21.7414 71.516 21.2134 71 21.2134 70.22ZM20.6254 70.232C20.6254 71.324 21.4054 72.044 22.4734 72.044C23.5054 72.044 24.3214 71.228 24.3214 70.22C24.3214 69.128 23.5174 68.396 22.4734 68.396C21.4174 68.396 20.6254 69.188 20.6254 70.232ZM22.1014 77H22.7614L28.0174 68.36H27.3574L22.1014 77Z" fill="#444F55"/>
<path d="M98.0465 552.356H95.7925V553H100.818V552.356H98.8445V543.074H98.2845C97.5845 543.844 96.4225 544.488 95.4845 544.712L95.6105 545.356C96.5205 545.174 97.3185 544.796 98.0465 544.292V552.356Z" fill="#444F55"/>
<path d="M138.032 553H143.618V552.272H139.068L142.498 547.904C143.254 546.952 143.534 546.336 143.534 545.328C143.534 543.802 142.316 542.92 140.93 542.92C139.726 542.92 138.634 543.48 137.878 544.306L138.354 544.852C139.138 544.096 139.936 543.69 140.86 543.69C141.952 543.69 142.708 544.39 142.708 545.426C142.708 546.168 142.456 546.756 141.826 547.554L138.032 552.412V553Z" fill="#444F55"/>
<path d="M180.67 551.838C181.622 552.818 182.574 553.168 183.792 553.168C185.416 553.168 186.816 552.16 186.816 550.326C186.816 548.884 186.088 547.904 184.408 547.75C185.514 547.428 186.256 546.378 186.256 545.286C186.256 543.774 185.15 542.92 183.68 542.92C182.616 542.92 181.762 543.298 181.062 543.83L181.426 544.39C182.084 543.886 182.798 543.662 183.624 543.662C184.576 543.662 185.43 544.236 185.43 545.356C185.43 546.616 184.31 547.498 182.868 547.54L182.896 548.282C182.938 548.282 183.414 548.254 183.582 548.254C185.346 548.268 185.99 549.164 185.99 550.382C185.99 551.586 185.01 552.412 183.764 552.412C182.658 552.412 181.958 552.048 181.16 551.264L180.67 551.838Z" fill="#444F55"/>
<path d="M224.639 549.836L228.363 543.886V549.836H224.639ZM228.363 553H229.119V550.55H230.351V549.836H229.119V543.074H228.069L223.771 549.934V550.55H228.363V553Z" fill="#444F55"/>
<path d="M267.282 549.136H267.982L268.038 548.45C268.458 547.988 269.102 547.582 270.04 547.582C271.384 547.582 272.028 548.604 272.028 549.934C272.028 551.67 271.006 552.44 269.606 552.44C268.836 552.44 268.108 552.146 267.296 551.67L266.932 552.314C267.828 552.93 268.878 553.168 269.69 553.168C271.482 553.168 272.84 552.062 272.84 549.864C272.84 548.03 271.916 546.868 270.124 546.868C269.242 546.868 268.5 547.232 268.094 547.652L268.36 543.844H272.28L272.322 543.074H267.688L267.282 549.136Z" fill="#444F55"/>
<path d="M310.066 548.828C310.066 551.614 311.074 553.168 313.104 553.168C314.896 553.168 315.988 552.034 315.988 549.962C315.988 548.31 315.162 546.882 313.356 546.882C312.334 546.882 311.466 547.414 310.85 548.044C310.99 545.888 311.522 543.634 313.594 543.634C314.196 543.634 314.7 543.802 315.288 544.278L315.68 543.718C315.078 543.186 314.294 542.92 313.594 542.92C311.438 542.92 310.066 544.81 310.066 548.828ZM313.132 552.426C311.774 552.426 310.85 551.474 310.85 548.828C311.27 548.394 312.18 547.61 313.202 547.61C314.28 547.61 315.19 548.324 315.19 550.004C315.19 551.74 314.224 552.426 313.132 552.426Z" fill="#444F55"/>
<path d="M358.838 543.648V543.074H353.182V543.844H357.942L354.246 552.888V553H355.058L358.838 543.648Z" fill="#444F55"/>
<path d="M396.778 550.564C396.778 549.178 397.786 548.436 398.878 547.988C400.026 548.366 401.174 549.024 401.174 550.354C401.174 551.614 400.292 552.454 398.962 552.454C397.604 552.454 396.778 551.684 396.778 550.564ZM397.184 545.3C397.184 544.222 397.94 543.606 399.018 543.606C400.096 543.606 400.81 544.152 400.81 545.174C400.81 546.196 399.802 546.966 399.06 547.288C398.094 546.938 397.184 546.308 397.184 545.3ZM395.966 550.564C395.966 552.174 397.044 553.168 398.906 553.168C400.768 553.168 402 552.076 402 550.354C402 549.08 401.286 548.24 399.802 547.61C400.852 547.092 401.622 546.182 401.622 545.132C401.622 543.746 400.53 542.92 399.018 542.92C397.492 542.92 396.372 543.83 396.372 545.272C396.372 546.392 397.002 547.19 398.192 547.638C396.862 548.184 395.966 549.164 395.966 550.564Z" fill="#444F55"/>
<path d="M480.863 552.356H478.609V553H483.635V552.356H481.661V543.074H481.101C480.401 543.844 479.239 544.488 478.301 544.712L478.427 545.356C479.337 545.174 480.135 544.796 480.863 544.292V552.356ZM485.698 548.044C485.698 544.978 486.538 543.634 488.106 543.634C489.688 543.634 490.514 544.978 490.514 548.03C490.514 551.124 489.674 552.454 488.106 552.454C486.538 552.454 485.698 551.096 485.698 548.044ZM484.886 548.044C484.886 551.558 486.034 553.168 488.092 553.168C490.15 553.168 491.326 551.558 491.326 548.016C491.326 544.516 490.164 542.92 488.106 542.92C486.048 542.92 484.886 544.516 484.886 548.044Z" fill="#444F55"/>
<path d="M444.791 547.162C444.791 544.586 443.783 542.92 441.767 542.92C439.975 542.92 438.869 544.208 438.869 546.112C438.869 547.75 439.681 549.206 441.501 549.206C442.509 549.206 443.349 548.744 444.035 548.072C443.881 550.368 443.279 552.454 441.417 552.454C440.661 552.454 440.143 552.188 439.625 551.824L439.233 552.426C439.835 552.93 440.605 553.168 441.459 553.168C443.461 553.168 444.791 551.292 444.791 547.162ZM441.739 543.676C443.083 543.676 444.007 544.74 443.993 547.218C443.531 547.736 442.705 548.464 441.641 548.464C440.577 548.464 439.681 547.764 439.681 546.084C439.681 544.418 440.647 543.676 441.739 543.676Z" fill="#444F55"/>
<path d="M514.976 484.69C517.79 484.69 518.952 486.23 518.952 488.974C518.952 491.732 517.79 493.23 514.976 493.23H513.072V484.69H514.976ZM512.232 483.92V494H514.78C518.084 494 519.834 492.572 519.834 488.974C519.834 485.446 518.084 483.92 514.906 483.92H512.232ZM526.91 492.614C526.196 493.202 525.566 493.44 524.726 493.44C523.018 493.44 522.248 492.264 522.234 490.514H527.4C527.4 490.43 527.4 490.206 527.4 490.024C527.4 487.658 526.462 486.496 524.628 486.496C522.64 486.496 521.38 488.022 521.38 490.36C521.38 492.964 522.668 494.168 524.656 494.168C525.608 494.168 526.462 493.902 527.274 493.174L526.91 492.614ZM522.234 489.814C522.248 489.016 522.71 487.196 524.628 487.196C526.112 487.196 526.574 488.288 526.602 489.814H522.234ZM529.883 483.92H529.085V494H529.883V490.276H530.737L533.677 494H534.671L531.465 489.912L534.321 486.664H533.341L530.779 489.562H529.883V483.92ZM535.989 486.664V494H536.787V488.61C537.151 488.162 537.963 487.238 539.041 487.238C540.203 487.238 540.665 487.952 540.665 489.394V494H541.463V489.296C541.463 487.686 540.973 486.496 539.209 486.496C538.201 486.496 537.375 487.042 536.745 487.798V486.664H535.989ZM543.369 484.634C543.369 484.956 543.635 485.18 543.971 485.18C544.307 485.18 544.545 484.956 544.545 484.634C544.545 484.312 544.307 484.088 543.971 484.088C543.635 484.088 543.369 484.312 543.369 484.634ZM544.349 486.664H543.565V494H544.349V486.664ZM546.503 486.664V494H547.301V488.61C547.665 488.162 548.477 487.238 549.555 487.238C550.717 487.238 551.179 487.952 551.179 489.394V494H551.977V489.296C551.977 487.686 551.487 486.496 549.723 486.496C548.715 486.496 547.889 487.042 547.259 487.798V486.664H546.503ZM559.875 486.664H559.105V487.812C558.713 487.28 557.929 486.496 556.711 486.496C554.569 486.496 553.659 488.246 553.659 490.346C553.659 492.446 554.499 494.14 556.641 494.14C557.761 494.14 558.587 493.608 559.105 492.978V493.748C559.105 495.456 558.699 496.254 556.837 496.254C555.969 496.254 555.157 496.03 554.569 495.792L554.373 496.492C554.989 496.73 555.941 496.94 556.963 496.94C558.895 496.94 559.875 496.254 559.875 493.888V486.664ZM559.077 492.166C558.657 492.628 557.971 493.412 556.809 493.412C555.241 493.412 554.499 492.138 554.499 490.318C554.499 488.47 555.283 487.238 556.823 487.238C557.901 487.238 558.741 488.162 559.077 488.708V492.166ZM561.431 493.048C562.047 493.664 563.069 494.168 564.231 494.168C565.827 494.168 566.905 493.328 566.905 492.012C566.905 490.906 566.191 490.318 564.539 489.898C563.237 489.562 562.621 489.268 562.621 488.428C562.621 487.63 563.265 487.182 564.301 487.182C565.001 487.182 565.743 487.448 566.373 488.064L566.821 487.574C566.149 486.846 565.323 486.496 564.273 486.496C562.761 486.496 561.781 487.252 561.781 488.512C561.781 489.59 562.383 490.164 564.105 490.556C565.631 490.906 566.051 491.312 566.051 492.096C566.051 492.95 565.253 493.468 564.189 493.468C563.377 493.468 562.565 493.076 561.879 492.502L561.431 493.048ZM574.422 486.664H573.652V487.812C573.26 487.28 572.476 486.496 571.258 486.496C569.116 486.496 568.206 488.246 568.206 490.346C568.206 492.446 569.046 494.14 571.188 494.14C572.308 494.14 573.134 493.608 573.652 492.978V493.748C573.652 495.456 573.246 496.254 571.384 496.254C570.516 496.254 569.704 496.03 569.116 495.792L568.92 496.492C569.536 496.73 570.488 496.94 571.51 496.94C573.442 496.94 574.422 496.254 574.422 493.888V486.664ZM573.624 492.166C573.204 492.628 572.518 493.412 571.356 493.412C569.788 493.412 569.046 492.138 569.046 490.318C569.046 488.47 569.83 487.238 571.37 487.238C572.448 487.238 573.288 488.162 573.624 488.708V492.166ZM577.336 486.664H576.622V494H577.42V488.75C577.686 488.12 578.246 487.322 578.988 487.322C579.198 487.322 579.408 487.336 579.576 487.392L579.688 486.594C579.492 486.524 579.254 486.496 579.03 486.496C578.274 486.496 577.658 487.098 577.336 487.854V486.664ZM584.938 490.934C584.938 492.068 583.958 493.524 582.642 493.524C581.662 493.524 581.116 492.978 581.116 492.166C581.116 491.088 581.844 490.458 583.804 490.458C584.336 490.458 584.63 490.5 584.938 490.542V490.934ZM585.736 489.002C585.736 487.224 584.672 486.496 583.16 486.496C582.18 486.496 581.298 486.916 580.668 487.574L581.074 488.092C581.69 487.532 582.32 487.196 583.104 487.196C584.294 487.196 584.938 487.84 584.938 489.072V489.87C584.504 489.828 584.168 489.8 583.72 489.8C580.892 489.8 580.304 491.088 580.304 492.082C580.304 493.412 581.158 494.168 582.46 494.168C583.664 494.168 584.476 493.58 584.994 492.53L585.05 494H585.736V489.002ZM592.875 494H593.617V483.92H592.833V487.77C592.287 487.098 591.573 486.496 590.411 486.496C588.451 486.496 587.401 488.064 587.401 490.346C587.401 492.6 588.325 494.168 590.397 494.168C591.713 494.168 592.511 493.384 592.861 492.95L592.875 494ZM592.819 492.152C592.441 492.614 591.699 493.426 590.579 493.426C588.815 493.426 588.241 491.844 588.241 490.346C588.241 488.344 589.165 487.238 590.509 487.238C591.643 487.238 592.455 488.176 592.819 488.68V492.152ZM598.721 494H599.519V487.35H600.905V486.664H599.519V485.516C599.519 484.648 599.939 484.396 600.401 484.396C600.653 484.396 600.877 484.438 601.059 484.494L601.115 483.864C600.821 483.78 600.513 483.752 600.261 483.752C599.127 483.752 598.721 484.578 598.721 485.558V486.692L597.895 486.832V487.35H598.721V494ZM602.433 490.346C602.433 488.26 603.469 487.238 604.827 487.238C606.185 487.238 607.263 488.218 607.263 490.346C607.263 492.446 606.185 493.426 604.827 493.426C603.469 493.426 602.433 492.446 602.433 490.346ZM601.593 490.36C601.593 492.726 602.769 494.168 604.799 494.168C606.801 494.168 608.103 492.726 608.103 490.346C608.103 487.91 606.801 486.496 604.827 486.496C602.853 486.496 601.593 487.966 601.593 490.36ZM610.559 486.664H609.845V494H610.643V488.75C610.909 488.12 611.469 487.322 612.211 487.322C612.421 487.322 612.631 487.336 612.799 487.392L612.911 486.594C612.715 486.524 612.477 486.496 612.253 486.496C611.497 486.496 610.881 487.098 610.559 487.854V486.664ZM619.28 487.35V486.664H617.88V484.718H617.236L617.096 486.664L616.2 486.832V487.35H617.096V492.936C617.096 493.804 617.558 494.168 618.426 494.168C618.804 494.168 619.294 494.014 619.588 493.874L619.406 493.286C619.154 493.398 618.846 493.496 618.538 493.496C618.062 493.496 617.88 493.314 617.88 492.768V487.35H619.28ZM621.551 486.664H620.837V494H621.635V488.75C621.901 488.12 622.461 487.322 623.203 487.322C623.413 487.322 623.623 487.336 623.791 487.392L623.903 486.594C623.707 486.524 623.469 486.496 623.245 486.496C622.489 486.496 621.873 487.098 621.551 487.854V486.664ZM629.153 490.934C629.153 492.068 628.173 493.524 626.857 493.524C625.877 493.524 625.331 492.978 625.331 492.166C625.331 491.088 626.059 490.458 628.019 490.458C628.551 490.458 628.845 490.5 629.153 490.542V490.934ZM629.951 489.002C629.951 487.224 628.887 486.496 627.375 486.496C626.395 486.496 625.513 486.916 624.883 487.574L625.289 488.092C625.905 487.532 626.535 487.196 627.319 487.196C628.509 487.196 629.153 487.84 629.153 489.072V489.87C628.719 489.828 628.383 489.8 627.935 489.8C625.107 489.8 624.519 491.088 624.519 492.082C624.519 493.412 625.373 494.168 626.675 494.168C627.879 494.168 628.691 493.58 629.209 492.53L629.265 494H629.951V489.002ZM636.53 486.664H632.974V485.516C632.974 484.648 633.394 484.41 633.856 484.41C634.094 484.41 634.332 484.438 634.5 484.494V483.85C634.234 483.78 633.94 483.752 633.702 483.752C632.568 483.752 632.176 484.578 632.176 485.558V486.692L631.35 486.832V487.35H632.176V494H632.974V487.35H635.732V494H636.53V486.664ZM635.55 484.634C635.55 484.97 635.802 485.208 636.138 485.208C636.474 485.208 636.712 484.97 636.712 484.634C636.712 484.298 636.474 484.06 636.138 484.06C635.802 484.06 635.55 484.298 635.55 484.634ZM639.49 483.92H638.692V494H639.49V490.276H640.344L643.284 494H644.278L641.072 489.912L643.928 486.664H642.948L640.386 489.562H639.49V483.92ZM646.395 483.92H645.597V494H646.395V490.276H647.249L650.189 494H651.183L647.977 489.912L650.833 486.664H649.853L647.291 489.562H646.395V483.92ZM652.501 486.664V494H653.299V488.596C653.663 488.148 654.377 487.252 655.371 487.252C656.407 487.252 656.687 487.966 656.687 489.044V494H657.499V488.568C657.821 488.176 658.591 487.252 659.529 487.252C660.565 487.252 660.859 487.938 660.859 489.016V494H661.657V488.932C661.657 487.672 661.335 486.496 659.739 486.496C658.689 486.496 657.975 487.112 657.373 487.826C657.163 487.084 656.701 486.496 655.567 486.496C654.517 486.496 653.803 487.112 653.257 487.826V486.664H652.501ZM668.796 492.614C668.082 493.202 667.452 493.44 666.612 493.44C664.904 493.44 664.134 492.264 664.12 490.514H669.286C669.286 490.43 669.286 490.206 669.286 490.024C669.286 487.658 668.348 486.496 666.514 486.496C664.526 486.496 663.266 488.022 663.266 490.36C663.266 492.964 664.554 494.168 666.542 494.168C667.494 494.168 668.348 493.902 669.16 493.174L668.796 492.614ZM664.12 489.814C664.134 489.016 664.596 487.196 666.514 487.196C667.998 487.196 668.46 488.288 668.488 489.814H664.12ZM670.972 486.664V494H671.77V488.61C672.134 488.162 672.946 487.238 674.024 487.238C675.186 487.238 675.648 487.952 675.648 489.394V494H676.446V489.296C676.446 487.686 675.956 486.496 674.192 486.496C673.184 486.496 672.358 487.042 671.728 487.798V486.664H670.972ZM684.344 486.664H683.574V487.812C683.182 487.28 682.398 486.496 681.18 486.496C679.038 486.496 678.128 488.246 678.128 490.346C678.128 492.446 678.968 494.14 681.11 494.14C682.23 494.14 683.056 493.608 683.574 492.978V493.748C683.574 495.456 683.168 496.254 681.306 496.254C680.438 496.254 679.626 496.03 679.038 495.792L678.842 496.492C679.458 496.73 680.41 496.94 681.432 496.94C683.364 496.94 684.344 496.254 684.344 493.888V486.664ZM683.546 492.166C683.126 492.628 682.44 493.412 681.278 493.412C679.71 493.412 678.968 492.138 678.968 490.318C678.968 488.47 679.752 487.238 681.292 487.238C682.37 487.238 683.21 488.162 683.546 488.708V492.166ZM691.682 494H692.424V483.92H691.64V487.77C691.094 487.098 690.38 486.496 689.218 486.496C687.258 486.496 686.208 488.064 686.208 490.346C686.208 492.6 687.132 494.168 689.204 494.168C690.52 494.168 691.318 493.384 691.668 492.95L691.682 494ZM691.626 492.152C691.248 492.614 690.506 493.426 689.386 493.426C687.622 493.426 687.048 491.844 687.048 490.346C687.048 488.344 687.972 487.238 689.316 487.238C690.45 487.238 691.262 488.176 691.626 488.68V492.152ZM699.695 492.614C698.981 493.202 698.351 493.44 697.511 493.44C695.803 493.44 695.033 492.264 695.019 490.514H700.185C700.185 490.43 700.185 490.206 700.185 490.024C700.185 487.658 699.247 486.496 697.413 486.496C695.425 486.496 694.165 488.022 694.165 490.36C694.165 492.964 695.453 494.168 697.441 494.168C698.393 494.168 699.247 493.902 700.059 493.174L699.695 492.614ZM695.019 489.814C695.033 489.016 695.495 487.196 697.413 487.196C698.897 487.196 699.359 488.288 699.387 489.814H695.019Z" fill="#444F55"/>
<path d="M522.186 360L521.15 349.92H520.128L517.034 358.838L513.954 349.92H512.904L511.882 360H512.708L513.59 351.208L516.642 360H517.384L520.478 351.208L521.374 360H522.186ZM528.35 356.934C528.35 358.068 527.37 359.524 526.054 359.524C525.074 359.524 524.528 358.978 524.528 358.166C524.528 357.088 525.256 356.458 527.216 356.458C527.748 356.458 528.042 356.5 528.35 356.542V356.934ZM529.148 355.002C529.148 353.224 528.084 352.496 526.572 352.496C525.592 352.496 524.71 352.916 524.08 353.574L524.486 354.092C525.102 353.532 525.732 353.196 526.516 353.196C527.706 353.196 528.35 353.84 528.35 355.072V355.87C527.916 355.828 527.58 355.8 527.132 355.8C524.304 355.8 523.716 357.088 523.716 358.082C523.716 359.412 524.57 360.168 525.872 360.168C527.076 360.168 527.888 359.58 528.406 358.53L528.462 360H529.148V355.002ZM531.149 352.664V360H531.947V354.61C532.311 354.162 533.123 353.238 534.201 353.238C535.363 353.238 535.825 353.952 535.825 355.394V360H536.623V355.296C536.623 353.686 536.133 352.496 534.369 352.496C533.361 352.496 532.535 353.042 531.905 353.798V352.664H531.149ZM544.031 360V352.664H543.233V358.068C542.715 358.712 541.959 359.426 540.951 359.426C539.747 359.426 539.383 358.698 539.383 357.382V352.664H538.571V357.536C538.571 358.95 538.977 360.168 540.811 360.168C541.973 360.168 542.813 359.454 543.275 358.88V360H544.031ZM551.3 358.614C550.586 359.202 549.956 359.44 549.116 359.44C547.408 359.44 546.638 358.264 546.624 356.514H551.79C551.79 356.43 551.79 356.206 551.79 356.024C551.79 353.658 550.852 352.496 549.018 352.496C547.03 352.496 545.77 354.022 545.77 356.36C545.77 358.964 547.058 360.168 549.046 360.168C549.998 360.168 550.852 359.902 551.664 359.174L551.3 358.614ZM546.624 355.814C546.638 355.016 547.1 353.196 549.018 353.196C550.502 353.196 550.964 354.288 550.992 355.814H546.624ZM554.273 360V349.92H553.475V360H554.273ZM557.145 360V349.92H556.347V360H557.145ZM562.02 352.664V360H562.818V354.596C563.182 354.148 563.896 353.252 564.89 353.252C565.926 353.252 566.206 353.966 566.206 355.044V360H567.018V354.568C567.34 354.176 568.11 353.252 569.048 353.252C570.084 353.252 570.378 353.938 570.378 355.016V360H571.176V354.932C571.176 353.672 570.854 352.496 569.258 352.496C568.208 352.496 567.494 353.112 566.892 353.826C566.682 353.084 566.22 352.496 565.086 352.496C564.036 352.496 563.322 353.112 562.776 353.826V352.664H562.02ZM578.316 358.614C577.602 359.202 576.972 359.44 576.132 359.44C574.424 359.44 573.654 358.264 573.64 356.514H578.806C578.806 356.43 578.806 356.206 578.806 356.024C578.806 353.658 577.868 352.496 576.034 352.496C574.046 352.496 572.786 354.022 572.786 356.36C572.786 358.964 574.074 360.168 576.062 360.168C577.014 360.168 577.868 359.902 578.68 359.174L578.316 358.614ZM573.64 355.814C573.654 355.016 574.116 353.196 576.034 353.196C577.518 353.196 577.98 354.288 578.008 355.814H573.64ZM581.205 352.664H580.491V360H581.289V354.75C581.555 354.12 582.115 353.322 582.857 353.322C583.067 353.322 583.277 353.336 583.445 353.392L583.557 352.594C583.361 352.524 583.123 352.496 582.899 352.496C582.143 352.496 581.527 353.098 581.205 353.854V352.664ZM585.514 349.92H584.716V360H585.514V356.276H586.368L589.308 360H590.302L587.096 355.912L589.952 352.664H588.972L586.41 355.562H585.514V349.92ZM591.508 350.634C591.508 350.956 591.774 351.18 592.11 351.18C592.446 351.18 592.684 350.956 592.684 350.634C592.684 350.312 592.446 350.088 592.11 350.088C591.774 350.088 591.508 350.312 591.508 350.634ZM592.488 352.664H591.704V360H592.488V352.664ZM594.641 352.664V360H595.439V354.61C595.803 354.162 596.615 353.238 597.693 353.238C598.855 353.238 599.317 353.952 599.317 355.394V360H600.115V355.296C600.115 353.686 599.625 352.496 597.861 352.496C596.853 352.496 596.027 353.042 595.397 353.798V352.664H594.641ZM608.014 352.664H607.244V353.812C606.852 353.28 606.068 352.496 604.85 352.496C602.708 352.496 601.798 354.246 601.798 356.346C601.798 358.446 602.638 360.14 604.78 360.14C605.9 360.14 606.726 359.608 607.244 358.978V359.748C607.244 361.456 606.838 362.254 604.976 362.254C604.108 362.254 603.296 362.03 602.708 361.792L602.512 362.492C603.128 362.73 604.08 362.94 605.102 362.94C607.034 362.94 608.014 362.254 608.014 359.888V352.664ZM607.216 358.166C606.796 358.628 606.11 359.412 604.948 359.412C603.38 359.412 602.638 358.138 602.638 356.318C602.638 354.47 603.422 353.238 604.962 353.238C606.04 353.238 606.88 354.162 607.216 354.708V358.166ZM615.284 349.766C613.856 351.46 612.988 353.462 612.988 355.87C612.988 358.236 613.814 360.28 615.354 361.778L615.816 361.414C614.402 359.65 613.786 358.096 613.786 355.87C613.786 353.7 614.444 351.88 615.816 350.088L615.284 349.766ZM617.171 359.048C617.787 359.664 618.809 360.168 619.971 360.168C621.567 360.168 622.645 359.328 622.645 358.012C622.645 356.906 621.931 356.318 620.279 355.898C618.977 355.562 618.361 355.268 618.361 354.428C618.361 353.63 619.005 353.182 620.041 353.182C620.741 353.182 621.483 353.448 622.113 354.064L622.561 353.574C621.889 352.846 621.063 352.496 620.013 352.496C618.501 352.496 617.521 353.252 617.521 354.512C617.521 355.59 618.123 356.164 619.845 356.556C621.371 356.906 621.791 357.312 621.791 358.096C621.791 358.95 620.993 359.468 619.929 359.468C619.117 359.468 618.305 359.076 617.619 358.502L617.171 359.048ZM626.69 353.35V352.664H625.29V350.718H624.646L624.506 352.664L623.61 352.832V353.35H624.506V358.936C624.506 359.804 624.968 360.168 625.836 360.168C626.214 360.168 626.704 360.014 626.998 359.874L626.816 359.286C626.564 359.398 626.256 359.496 625.948 359.496C625.472 359.496 625.29 359.314 625.29 358.768V353.35H626.69ZM633.304 358.614C632.59 359.202 631.96 359.44 631.12 359.44C629.412 359.44 628.642 358.264 628.628 356.514H633.794C633.794 356.43 633.794 356.206 633.794 356.024C633.794 353.658 632.856 352.496 631.022 352.496C629.034 352.496 627.774 354.022 627.774 356.36C627.774 358.964 629.062 360.168 631.05 360.168C632.002 360.168 632.856 359.902 633.668 359.174L633.304 358.614ZM628.628 355.814C628.642 355.016 629.104 353.196 631.022 353.196C632.506 353.196 632.968 354.288 632.996 355.814H628.628ZM635.479 352.664V360H636.277V354.61C636.641 354.162 637.453 353.238 638.531 353.238C639.693 353.238 640.155 353.952 640.155 355.394V360H640.953V355.296C640.953 353.686 640.463 352.496 638.699 352.496C637.691 352.496 636.865 353.042 636.235 353.798V352.664H635.479ZM648.852 352.664H648.082V353.812C647.69 353.28 646.906 352.496 645.688 352.496C643.546 352.496 642.636 354.246 642.636 356.346C642.636 358.446 643.476 360.14 645.618 360.14C646.738 360.14 647.564 359.608 648.082 358.978V359.748C648.082 361.456 647.676 362.254 645.814 362.254C644.946 362.254 644.134 362.03 643.546 361.792L643.35 362.492C643.966 362.73 644.918 362.94 645.94 362.94C647.872 362.94 648.852 362.254 648.852 359.888V352.664ZM648.054 358.166C647.634 358.628 646.948 359.412 645.786 359.412C644.218 359.412 643.476 358.138 643.476 356.318C643.476 354.47 644.26 353.238 645.8 353.238C646.878 353.238 647.718 354.162 648.054 354.708V358.166ZM653.46 353.35V352.664H652.06V350.718H651.416L651.276 352.664L650.38 352.832V353.35H651.276V358.936C651.276 359.804 651.738 360.168 652.606 360.168C652.984 360.168 653.474 360.014 653.768 359.874L653.586 359.286C653.334 359.398 653.026 359.496 652.718 359.496C652.242 359.496 652.06 359.314 652.06 358.768V353.35H653.46ZM656.965 352.664L659.513 360H660.451L663.069 352.664H662.271L660.003 359.132L657.805 352.664H656.965ZM669.275 358.614C668.561 359.202 667.931 359.44 667.091 359.44C665.383 359.44 664.613 358.264 664.599 356.514H669.765C669.765 356.43 669.765 356.206 669.765 356.024C669.765 353.658 668.827 352.496 666.993 352.496C665.005 352.496 663.745 354.022 663.745 356.36C663.745 358.964 665.033 360.168 667.021 360.168C667.973 360.168 668.827 359.902 669.639 359.174L669.275 358.614ZM664.599 355.814C664.613 355.016 665.075 353.196 666.993 353.196C668.477 353.196 668.939 354.288 668.967 355.814H664.599ZM677.33 352.664H676.56V353.812C676.168 353.28 675.384 352.496 674.166 352.496C672.024 352.496 671.114 354.246 671.114 356.346C671.114 358.446 671.954 360.14 674.096 360.14C675.216 360.14 676.042 359.608 676.56 358.978V359.748C676.56 361.456 676.154 362.254 674.292 362.254C673.424 362.254 672.612 362.03 672.024 361.792L671.828 362.492C672.444 362.73 673.396 362.94 674.418 362.94C676.35 362.94 677.33 362.254 677.33 359.888V352.664ZM676.532 358.166C676.112 358.628 675.426 359.412 674.264 359.412C672.696 359.412 671.954 358.138 671.954 356.318C671.954 354.47 672.738 353.238 674.278 353.238C675.356 353.238 676.196 354.162 676.532 354.708V358.166ZM679.46 350.088C680.832 351.88 681.49 353.7 681.49 355.87C681.49 358.096 680.874 359.65 679.46 361.414L679.922 361.778C681.462 360.28 682.288 358.236 682.288 355.87C682.288 353.462 681.42 351.46 679.992 349.766L679.46 350.088Z" fill="#444F55"/>
<path d="M514.976 182.69C517.79 182.69 518.952 184.23 518.952 186.974C518.952 189.732 517.79 191.23 514.976 191.23H513.072V182.69H514.976ZM512.232 181.92V192H514.78C518.084 192 519.834 190.572 519.834 186.974C519.834 183.446 518.084 181.92 514.906 181.92H512.232ZM525.794 188.934C525.794 190.068 524.814 191.524 523.498 191.524C522.518 191.524 521.972 190.978 521.972 190.166C521.972 189.088 522.7 188.458 524.66 188.458C525.192 188.458 525.486 188.5 525.794 188.542V188.934ZM526.592 187.002C526.592 185.224 525.528 184.496 524.016 184.496C523.036 184.496 522.154 184.916 521.524 185.574L521.93 186.092C522.546 185.532 523.176 185.196 523.96 185.196C525.15 185.196 525.794 185.84 525.794 187.072V187.87C525.36 187.828 525.024 187.8 524.576 187.8C521.748 187.8 521.16 189.088 521.16 190.082C521.16 191.412 522.014 192.168 523.316 192.168C524.52 192.168 525.332 191.58 525.85 190.53L525.906 192H526.592V187.002ZM531.001 185.35V184.664H529.601V182.718H528.957L528.817 184.664L527.921 184.832V185.35H528.817V190.936C528.817 191.804 529.279 192.168 530.147 192.168C530.525 192.168 531.015 192.014 531.309 191.874L531.127 191.286C530.875 191.398 530.567 191.496 530.259 191.496C529.783 191.496 529.601 191.314 529.601 190.768V185.35H531.001ZM536.799 188.934C536.799 190.068 535.819 191.524 534.503 191.524C533.523 191.524 532.977 190.978 532.977 190.166C532.977 189.088 533.705 188.458 535.665 188.458C536.197 188.458 536.491 188.5 536.799 188.542V188.934ZM537.597 187.002C537.597 185.224 536.533 184.496 535.021 184.496C534.041 184.496 533.159 184.916 532.529 185.574L532.935 186.092C533.551 185.532 534.181 185.196 534.965 185.196C536.155 185.196 536.799 185.84 536.799 187.072V187.87C536.365 187.828 536.029 187.8 535.581 187.8C532.753 187.8 532.165 189.088 532.165 190.082C532.165 191.412 533.019 192.168 534.321 192.168C535.525 192.168 536.337 191.58 536.855 190.53L536.911 192H537.597V187.002ZM540.103 188.346C540.103 186.26 541.139 185.238 542.497 185.238C543.855 185.238 544.933 186.218 544.933 188.346C544.933 190.446 543.855 191.426 542.497 191.426C541.139 191.426 540.103 190.446 540.103 188.346ZM539.263 188.36C539.263 190.726 540.439 192.168 542.469 192.168C544.471 192.168 545.773 190.726 545.773 188.346C545.773 185.91 544.471 184.496 542.497 184.496C540.523 184.496 539.263 185.966 539.263 188.36ZM546.455 184.664L549.003 192H549.941L552.559 184.664H551.761L549.493 191.132L547.295 184.664H546.455ZM558.765 190.614C558.051 191.202 557.421 191.44 556.581 191.44C554.873 191.44 554.103 190.264 554.089 188.514H559.255C559.255 188.43 559.255 188.206 559.255 188.024C559.255 185.658 558.317 184.496 556.483 184.496C554.495 184.496 553.235 186.022 553.235 188.36C553.235 190.964 554.523 192.168 556.511 192.168C557.463 192.168 558.317 191.902 559.129 191.174L558.765 190.614ZM554.089 187.814C554.103 187.016 554.565 185.196 556.483 185.196C557.967 185.196 558.429 186.288 558.457 187.814H554.089ZM561.654 184.664H560.94V192H561.738V186.75C562.004 186.12 562.564 185.322 563.306 185.322C563.516 185.322 563.726 185.336 563.894 185.392L564.006 184.594C563.81 184.524 563.572 184.496 563.348 184.496C562.592 184.496 561.976 185.098 561.654 185.854V184.664ZM565.389 192H566.187V185.35H567.573V184.664H566.187V183.516C566.187 182.648 566.607 182.396 567.069 182.396C567.321 182.396 567.545 182.438 567.727 182.494L567.783 181.864C567.489 181.78 567.181 181.752 566.929 181.752C565.795 181.752 565.389 182.578 565.389 183.558V184.692L564.563 184.832V185.35H565.389V192ZM568.261 188.36C568.261 190.096 568.891 191.342 570.025 191.874L569.689 193.008H570.459L570.739 192.098C570.963 192.14 571.201 192.168 571.467 192.168C573.469 192.168 574.771 190.726 574.771 188.346C574.771 186.582 574.085 185.35 572.951 184.818L573.287 183.712H572.489L572.223 184.566C571.999 184.524 571.747 184.496 571.495 184.496C569.521 184.496 568.261 185.966 568.261 188.36ZM573.931 188.346C573.931 190.446 572.853 191.426 571.495 191.426C571.313 191.426 571.131 191.412 570.963 191.37L572.727 185.574C573.441 186.022 573.931 186.932 573.931 188.346ZM569.101 188.346C569.101 186.26 570.137 185.238 571.495 185.238C571.663 185.238 571.845 185.266 572.013 185.294L570.263 191.09C569.563 190.642 569.101 189.746 569.101 188.346ZM577.227 184.664H576.513V192H577.311V186.75C577.577 186.12 578.137 185.322 578.879 185.322C579.089 185.322 579.299 185.336 579.467 185.392L579.579 184.594C579.383 184.524 579.145 184.496 578.921 184.496C578.165 184.496 577.549 185.098 577.227 185.854V184.664ZM580.625 182.634C580.625 182.956 580.891 183.18 581.227 183.18C581.563 183.18 581.801 182.956 581.801 182.634C581.801 182.312 581.563 182.088 581.227 182.088C580.891 182.088 580.625 182.312 580.625 182.634ZM581.605 184.664H580.821V192H581.605V184.664ZM583.759 184.664V192H584.557V186.61C584.921 186.162 585.733 185.238 586.811 185.238C587.973 185.238 588.435 185.952 588.435 187.394V192H589.233V187.296C589.233 185.686 588.743 184.496 586.979 184.496C585.971 184.496 585.145 185.042 584.515 185.798V184.664H583.759ZM597.131 184.664H596.361V185.812C595.969 185.28 595.185 184.496 593.967 184.496C591.825 184.496 590.915 186.246 590.915 188.346C590.915 190.446 591.755 192.14 593.897 192.14C595.017 192.14 595.843 191.608 596.361 190.978V191.748C596.361 193.456 595.955 194.254 594.093 194.254C593.225 194.254 592.413 194.03 591.825 193.792L591.629 194.492C592.245 194.73 593.197 194.94 594.219 194.94C596.151 194.94 597.131 194.254 597.131 191.888V184.664ZM596.333 190.166C595.913 190.628 595.227 191.412 594.065 191.412C592.497 191.412 591.755 190.138 591.755 188.318C591.755 186.47 592.539 185.238 594.079 185.238C595.157 185.238 595.997 186.162 596.333 186.708V190.166ZM598.687 191.048C599.303 191.664 600.325 192.168 601.487 192.168C603.083 192.168 604.161 191.328 604.161 190.012C604.161 188.906 603.447 188.318 601.795 187.898C600.493 187.562 599.877 187.268 599.877 186.428C599.877 185.63 600.521 185.182 601.557 185.182C602.257 185.182 602.999 185.448 603.629 186.064L604.077 185.574C603.405 184.846 602.579 184.496 601.529 184.496C600.017 184.496 599.037 185.252 599.037 186.512C599.037 187.59 599.639 188.164 601.361 188.556C602.887 188.906 603.307 189.312 603.307 190.096C603.307 190.95 602.509 191.468 601.445 191.468C600.633 191.468 599.821 191.076 599.135 190.502L598.687 191.048ZM606.596 181.92H605.798V192H606.596V188.276H607.45L610.39 192H611.384L608.178 187.912L611.034 184.664H610.054L607.492 187.562H606.596V181.92ZM612.645 188.346C612.645 186.26 613.681 185.238 615.039 185.238C616.397 185.238 617.475 186.218 617.475 188.346C617.475 190.446 616.397 191.426 615.039 191.426C613.681 191.426 612.645 190.446 612.645 188.346ZM611.805 188.36C611.805 190.726 612.981 192.168 615.011 192.168C617.013 192.168 618.315 190.726 618.315 188.346C618.315 185.91 617.013 184.496 615.039 184.496C613.065 184.496 611.805 185.966 611.805 188.36ZM620.057 184.664V192H620.855V186.596C621.219 186.148 621.933 185.252 622.927 185.252C623.963 185.252 624.243 185.966 624.243 187.044V192H625.055V186.568C625.377 186.176 626.147 185.252 627.085 185.252C628.121 185.252 628.415 185.938 628.415 187.016V192H629.213V186.932C629.213 185.672 628.891 184.496 627.295 184.496C626.245 184.496 625.531 185.112 624.929 185.826C624.719 185.084 624.257 184.496 623.123 184.496C622.073 184.496 621.359 185.112 620.813 185.826V184.664H620.057ZM631.957 186.68C632.545 185.938 633.259 185.238 634.323 185.238C635.765 185.238 636.535 186.344 636.535 188.36C636.535 190.376 635.653 191.426 634.225 191.426C633.105 191.426 632.349 190.684 631.957 190.166V186.68ZM631.957 194.8V191.02C632.223 191.398 633.035 192.168 634.337 192.168C636.409 192.168 637.375 190.6 637.375 188.332C637.375 186.036 636.465 184.496 634.477 184.496C633.413 184.496 632.587 185 631.929 185.84V184.664H631.159V194.8H631.957ZM639.969 192V181.92H639.171V192H639.969ZM647.236 190.614C646.522 191.202 645.892 191.44 645.052 191.44C643.344 191.44 642.574 190.264 642.56 188.514H647.726C647.726 188.43 647.726 188.206 647.726 188.024C647.726 185.658 646.788 184.496 644.954 184.496C642.966 184.496 641.706 186.022 641.706 188.36C641.706 190.964 642.994 192.168 644.982 192.168C645.934 192.168 646.788 191.902 647.6 191.174L647.236 190.614ZM642.56 187.814C642.574 187.016 643.036 185.196 644.954 185.196C646.438 185.196 646.9 186.288 646.928 187.814H642.56ZM655.361 185.35V184.664H653.961V182.718H653.317L653.177 184.664H650.419V182.718H649.775L649.635 184.664L648.739 184.832V185.35H649.635V190.936C649.635 191.804 650.097 192.168 650.965 192.168C651.343 192.168 651.833 192.014 652.127 191.874L651.945 191.286C651.693 191.398 651.385 191.496 651.077 191.496C650.601 191.496 650.419 191.314 650.419 190.768V185.35H653.177V190.936C653.177 191.804 653.639 192.168 654.507 192.168C654.885 192.168 655.375 192.014 655.669 191.874L655.487 191.286C655.235 191.398 654.927 191.496 654.619 191.496C654.143 191.496 653.961 191.314 653.961 190.768V185.35H655.361ZM656.917 181.92V192H657.715V186.61C658.205 185.98 658.975 185.238 660.011 185.238C661.411 185.238 661.593 186.358 661.593 187.422V192H662.391V187.282C662.391 185.56 661.789 184.496 660.179 184.496C659.143 184.496 658.345 185.07 657.715 185.798V181.92H656.917ZM669.603 190.614C668.889 191.202 668.259 191.44 667.419 191.44C665.711 191.44 664.941 190.264 664.927 188.514H670.093C670.093 188.43 670.093 188.206 670.093 188.024C670.093 185.658 669.155 184.496 667.321 184.496C665.333 184.496 664.073 186.022 664.073 188.36C664.073 190.964 665.361 192.168 667.349 192.168C668.301 192.168 669.155 191.902 669.967 191.174L669.603 190.614ZM664.927 187.814C664.941 187.016 665.403 185.196 667.321 185.196C668.805 185.196 669.267 186.288 669.295 187.814H664.927ZM674.186 185.35V184.664H672.786V182.718H672.142L672.002 184.664L671.106 184.832V185.35H672.002V190.936C672.002 191.804 672.464 192.168 673.332 192.168C673.71 192.168 674.2 192.014 674.494 191.874L674.312 191.286C674.06 191.398 673.752 191.496 673.444 191.496C672.968 191.496 672.786 191.314 672.786 190.768V185.35H674.186Z" fill="#444F55"/>
<path d="M522.186 278L521.15 267.92H520.128L517.034 276.838L513.954 267.92H512.904L511.882 278H512.708L513.59 269.208L516.642 278H517.384L520.478 269.208L521.374 278H522.186ZM528.35 274.934C528.35 276.068 527.37 277.524 526.054 277.524C525.074 277.524 524.528 276.978 524.528 276.166C524.528 275.088 525.256 274.458 527.216 274.458C527.748 274.458 528.042 274.5 528.35 274.542V274.934ZM529.148 273.002C529.148 271.224 528.084 270.496 526.572 270.496C525.592 270.496 524.71 270.916 524.08 271.574L524.486 272.092C525.102 271.532 525.732 271.196 526.516 271.196C527.706 271.196 528.35 271.84 528.35 273.072V273.87C527.916 273.828 527.58 273.8 527.132 273.8C524.304 273.8 523.716 275.088 523.716 276.082C523.716 277.412 524.57 278.168 525.872 278.168C527.076 278.168 527.888 277.58 528.406 276.53L528.462 278H529.148V273.002ZM531.149 270.664V278H531.947V272.61C532.311 272.162 533.123 271.238 534.201 271.238C535.363 271.238 535.825 271.952 535.825 273.394V278H536.623V273.296C536.623 271.686 536.133 270.496 534.369 270.496C533.361 270.496 532.535 271.042 531.905 271.798V270.664H531.149ZM544.031 278V270.664H543.233V276.068C542.715 276.712 541.959 277.426 540.951 277.426C539.747 277.426 539.383 276.698 539.383 275.382V270.664H538.571V275.536C538.571 276.95 538.977 278.168 540.811 278.168C541.973 278.168 542.813 277.454 543.275 276.88V278H544.031ZM551.3 276.614C550.586 277.202 549.956 277.44 549.116 277.44C547.408 277.44 546.638 276.264 546.624 274.514H551.79C551.79 274.43 551.79 274.206 551.79 274.024C551.79 271.658 550.852 270.496 549.018 270.496C547.03 270.496 545.77 272.022 545.77 274.36C545.77 276.964 547.058 278.168 549.046 278.168C549.998 278.168 550.852 277.902 551.664 277.174L551.3 276.614ZM546.624 273.814C546.638 273.016 547.1 271.196 549.018 271.196C550.502 271.196 550.964 272.288 550.992 273.814H546.624ZM554.273 278V267.92H553.475V278H554.273ZM557.145 278V267.92H556.347V278H557.145ZM562.02 270.664V278H562.818V272.596C563.182 272.148 563.896 271.252 564.89 271.252C565.926 271.252 566.206 271.966 566.206 273.044V278H567.018V272.568C567.34 272.176 568.11 271.252 569.048 271.252C570.084 271.252 570.378 271.938 570.378 273.016V278H571.176V272.932C571.176 271.672 570.854 270.496 569.258 270.496C568.208 270.496 567.494 271.112 566.892 271.826C566.682 271.084 566.22 270.496 565.086 270.496C564.036 270.496 563.322 271.112 562.776 271.826V270.664H562.02ZM578.316 276.614C577.602 277.202 576.972 277.44 576.132 277.44C574.424 277.44 573.654 276.264 573.64 274.514H578.806C578.806 274.43 578.806 274.206 578.806 274.024C578.806 271.658 577.868 270.496 576.034 270.496C574.046 270.496 572.786 272.022 572.786 274.36C572.786 276.964 574.074 278.168 576.062 278.168C577.014 278.168 577.868 277.902 578.68 277.174L578.316 276.614ZM573.64 273.814C573.654 273.016 574.116 271.196 576.034 271.196C577.518 271.196 577.98 272.288 578.008 273.814H573.64ZM581.205 270.664H580.491V278H581.289V272.75C581.555 272.12 582.115 271.322 582.857 271.322C583.067 271.322 583.277 271.336 583.445 271.392L583.557 270.594C583.361 270.524 583.123 270.496 582.899 270.496C582.143 270.496 581.527 271.098 581.205 271.854V270.664ZM585.514 267.92H584.716V278H585.514V274.276H586.368L589.308 278H590.302L587.096 273.912L589.952 270.664H588.972L586.41 273.562H585.514V267.92ZM591.508 268.634C591.508 268.956 591.774 269.18 592.11 269.18C592.446 269.18 592.684 268.956 592.684 268.634C592.684 268.312 592.446 268.088 592.11 268.088C591.774 268.088 591.508 268.312 591.508 268.634ZM592.488 270.664H591.704V278H592.488V270.664ZM594.641 270.664V278H595.439V272.61C595.803 272.162 596.615 271.238 597.693 271.238C598.855 271.238 599.317 271.952 599.317 273.394V278H600.115V273.296C600.115 271.686 599.625 270.496 597.861 270.496C596.853 270.496 596.027 271.042 595.397 271.798V270.664H594.641ZM608.014 270.664H607.244V271.812C606.852 271.28 606.068 270.496 604.85 270.496C602.708 270.496 601.798 272.246 601.798 274.346C601.798 276.446 602.638 278.14 604.78 278.14C605.9 278.14 606.726 277.608 607.244 276.978V277.748C607.244 279.456 606.838 280.254 604.976 280.254C604.108 280.254 603.296 280.03 602.708 279.792L602.512 280.492C603.128 280.73 604.08 280.94 605.102 280.94C607.034 280.94 608.014 280.254 608.014 277.888V270.664ZM607.216 276.166C606.796 276.628 606.11 277.412 604.948 277.412C603.38 277.412 602.638 276.138 602.638 274.318C602.638 272.47 603.422 271.238 604.962 271.238C606.04 271.238 606.88 272.162 607.216 272.708V276.166ZM615.284 267.766C613.856 269.46 612.988 271.462 612.988 273.87C612.988 276.236 613.814 278.28 615.354 279.778L615.816 279.414C614.402 277.65 613.786 276.096 613.786 273.87C613.786 271.7 614.444 269.88 615.816 268.088L615.284 267.766ZM618.039 278H618.837V271.35H620.223V270.664H618.837V269.516C618.837 268.648 619.257 268.396 619.719 268.396C619.971 268.396 620.195 268.438 620.377 268.494L620.433 267.864C620.139 267.78 619.831 267.752 619.579 267.752C618.445 267.752 618.039 268.578 618.039 269.558V270.692L617.213 270.832V271.35H618.039V278ZM626.441 276.614C625.727 277.202 625.097 277.44 624.257 277.44C622.549 277.44 621.779 276.264 621.765 274.514H626.931C626.931 274.43 626.931 274.206 626.931 274.024C626.931 271.658 625.993 270.496 624.159 270.496C622.171 270.496 620.911 272.022 620.911 274.36C620.911 276.964 622.199 278.168 624.187 278.168C625.139 278.168 625.993 277.902 626.805 277.174L626.441 276.614ZM621.765 273.814C621.779 273.016 622.241 271.196 624.159 271.196C625.643 271.196 626.105 272.288 626.133 273.814H621.765ZM628.504 268.634C628.504 268.956 628.77 269.18 629.106 269.18C629.442 269.18 629.68 268.956 629.68 268.634C629.68 268.312 629.442 268.088 629.106 268.088C628.77 268.088 628.504 268.312 628.504 268.634ZM629.484 270.664H628.7V278H629.484V270.664ZM632.436 278V267.92H631.638V278H632.436ZM638.109 272.68C638.697 271.938 639.411 271.238 640.475 271.238C641.917 271.238 642.687 272.344 642.687 274.36C642.687 276.376 641.805 277.426 640.377 277.426C639.257 277.426 638.501 276.684 638.109 276.166V272.68ZM638.109 280.8V277.02C638.375 277.398 639.187 278.168 640.489 278.168C642.561 278.168 643.527 276.6 643.527 274.332C643.527 272.036 642.617 270.496 640.629 270.496C639.565 270.496 638.739 271 638.081 271.84V270.664H637.311V280.8H638.109ZM649.565 274.934C649.565 276.068 648.585 277.524 647.269 277.524C646.289 277.524 645.743 276.978 645.743 276.166C645.743 275.088 646.471 274.458 648.431 274.458C648.963 274.458 649.257 274.5 649.565 274.542V274.934ZM650.363 273.002C650.363 271.224 649.299 270.496 647.787 270.496C646.807 270.496 645.925 270.916 645.295 271.574L645.701 272.092C646.317 271.532 646.947 271.196 647.731 271.196C648.921 271.196 649.565 271.84 649.565 273.072V273.87C649.131 273.828 648.795 273.8 648.347 273.8C645.519 273.8 644.931 275.088 644.931 276.082C644.931 277.412 645.785 278.168 647.087 278.168C648.291 278.168 649.103 277.58 649.621 276.53L649.677 278H650.363V273.002ZM647.101 268.746C647.101 268.326 647.367 268.032 647.787 268.032C648.221 268.032 648.487 268.284 648.487 268.704C648.487 269.124 648.221 269.432 647.787 269.432C647.381 269.432 647.101 269.18 647.101 268.746ZM646.527 268.746C646.527 269.474 647.059 269.922 647.787 269.922C648.515 269.922 649.047 269.446 649.047 268.704C649.047 267.99 648.501 267.514 647.787 267.514C647.073 267.514 646.527 268.032 646.527 268.746ZM660.557 278V270.664H659.759V276.068C659.241 276.712 658.485 277.426 657.477 277.426C656.273 277.426 655.909 276.698 655.909 275.382V270.664H655.097V275.536C655.097 276.95 655.503 278.168 657.337 278.168C658.499 278.168 659.339 277.454 659.801 276.88V278H660.557ZM665.04 271.35V270.664H663.64V268.718H662.996L662.856 270.664L661.96 270.832V271.35H662.856V276.936C662.856 277.804 663.318 278.168 664.186 278.168C664.564 278.168 665.054 278.014 665.348 277.874L665.166 277.286C664.914 277.398 664.606 277.496 664.298 277.496C663.822 277.496 663.64 277.314 663.64 276.768V271.35H665.04ZM665.953 277.048C666.569 277.664 667.591 278.168 668.753 278.168C670.349 278.168 671.427 277.328 671.427 276.012C671.427 274.906 670.713 274.318 669.061 273.898C667.759 273.562 667.143 273.268 667.143 272.428C667.143 271.63 667.787 271.182 668.823 271.182C669.523 271.182 670.265 271.448 670.895 272.064L671.343 271.574C670.671 270.846 669.845 270.496 668.795 270.496C667.283 270.496 666.303 271.252 666.303 272.512C666.303 273.59 666.905 274.164 668.627 274.556C670.153 274.906 670.573 275.312 670.573 276.096C670.573 276.95 669.775 277.468 668.711 277.468C667.899 277.468 667.087 277.076 666.401 276.502L665.953 277.048ZM675.471 271.35V270.664H674.071V268.718H673.427L673.287 270.664L672.391 270.832V271.35H673.287V276.936C673.287 277.804 673.749 278.168 674.617 278.168C674.995 278.168 675.485 278.014 675.779 277.874L675.597 277.286C675.345 277.398 675.037 277.496 674.729 277.496C674.253 277.496 674.071 277.314 674.071 276.768V271.35H675.471ZM681.312 270.664L679.212 276.922L677.07 270.664H676.188L678.806 277.986L678.582 278.672C678.204 279.848 677.91 280.128 677.336 280.128C676.93 280.128 676.552 280.058 676.37 280.002L676.244 280.674C676.636 280.786 676.972 280.828 677.448 280.828C678.638 280.828 678.946 280.044 679.478 278.476L682.138 270.664H681.312ZM684.168 270.664H683.454V278H684.252V272.75C684.518 272.12 685.078 271.322 685.82 271.322C686.03 271.322 686.24 271.336 686.408 271.392L686.52 270.594C686.324 270.524 686.086 270.496 685.862 270.496C685.106 270.496 684.49 271.098 684.168 271.854V270.664ZM687.609 268.088C688.981 269.88 689.639 271.7 689.639 273.87C689.639 276.096 689.023 277.65 687.609 279.414L688.071 279.778C689.611 278.28 690.437 276.236 690.437 273.87C690.437 271.462 689.569 269.46 688.141 267.766L687.609 268.088Z" fill="#444F55"/>
<path d="M512.736 104.82C512.736 102.034 514.164 100.522 516.334 100.522C518.42 100.522 519.862 102.006 519.862 104.82C519.862 107.984 518.448 109.384 516.362 109.384C514.206 109.384 512.736 107.956 512.736 104.82ZM511.84 104.82C511.84 108.558 513.744 110.168 516.292 110.168C518.812 110.168 520.758 108.6 520.758 104.82C520.758 101.432 518.854 99.738 516.39 99.738C513.772 99.738 511.84 101.432 511.84 104.82ZM523.43 104.68C524.018 103.938 524.732 103.238 525.796 103.238C527.238 103.238 528.008 104.344 528.008 106.36C528.008 108.376 527.126 109.426 525.698 109.426C524.578 109.426 523.822 108.684 523.43 108.166V104.68ZM523.43 112.8V109.02C523.696 109.398 524.508 110.168 525.81 110.168C527.882 110.168 528.848 108.6 528.848 106.332C528.848 104.036 527.938 102.496 525.95 102.496C524.886 102.496 524.06 103 523.402 103.84V102.664H522.632V112.8H523.43ZM535.837 108.614C535.123 109.202 534.493 109.44 533.653 109.44C531.945 109.44 531.175 108.264 531.161 106.514H536.327C536.327 106.43 536.327 106.206 536.327 106.024C536.327 103.658 535.389 102.496 533.555 102.496C531.567 102.496 530.307 104.022 530.307 106.36C530.307 108.964 531.595 110.168 533.583 110.168C534.535 110.168 535.389 109.902 536.201 109.174L535.837 108.614ZM531.161 105.814C531.175 105.016 531.637 103.196 533.555 103.196C535.039 103.196 535.501 104.288 535.529 105.814H531.161ZM538.727 102.664H538.013V110H538.811V104.75C539.077 104.12 539.637 103.322 540.379 103.322C540.589 103.322 540.799 103.336 540.967 103.392L541.079 102.594C540.883 102.524 540.645 102.496 540.421 102.496C539.665 102.496 539.049 103.098 538.727 103.854V102.664ZM546.329 106.934C546.329 108.068 545.349 109.524 544.033 109.524C543.053 109.524 542.507 108.978 542.507 108.166C542.507 107.088 543.235 106.458 545.195 106.458C545.727 106.458 546.021 106.5 546.329 106.542V106.934ZM547.127 105.002C547.127 103.224 546.063 102.496 544.551 102.496C543.571 102.496 542.689 102.916 542.059 103.574L542.465 104.092C543.081 103.532 543.711 103.196 544.495 103.196C545.685 103.196 546.329 103.84 546.329 105.072V105.87C545.895 105.828 545.559 105.8 545.111 105.8C542.283 105.8 541.695 107.088 541.695 108.082C541.695 109.412 542.549 110.168 543.851 110.168C545.055 110.168 545.867 109.58 546.385 108.53L546.441 110H547.127V105.002ZM548.374 109.048C548.99 109.664 550.012 110.168 551.174 110.168C552.77 110.168 553.848 109.328 553.848 108.012C553.848 106.906 553.134 106.318 551.482 105.898C550.18 105.562 549.564 105.268 549.564 104.428C549.564 103.63 550.208 103.182 551.244 103.182C551.944 103.182 552.686 103.448 553.316 104.064L553.764 103.574C553.092 102.846 552.266 102.496 551.216 102.496C549.704 102.496 548.724 103.252 548.724 104.512C548.724 105.59 549.326 106.164 551.048 106.556C552.574 106.906 552.994 107.312 552.994 108.096C552.994 108.95 552.196 109.468 551.132 109.468C550.32 109.468 549.508 109.076 548.822 108.502L548.374 109.048ZM556.367 102.664H555.569V111.092C555.569 111.974 555.275 112.17 554.771 112.17C554.533 112.17 554.281 112.128 554.113 112.072L554.015 112.702C554.309 112.814 554.617 112.842 554.925 112.842C556.087 112.842 556.367 112.184 556.367 111.106V102.664ZM555.387 100.634C555.387 100.97 555.653 101.208 555.989 101.208C556.325 101.208 556.563 100.97 556.563 100.634C556.563 100.298 556.325 100.06 555.989 100.06C555.653 100.06 555.387 100.298 555.387 100.634ZM559.024 106.346C559.024 104.26 560.06 103.238 561.418 103.238C562.776 103.238 563.854 104.218 563.854 106.346C563.854 108.446 562.776 109.426 561.418 109.426C560.06 109.426 559.024 108.446 559.024 106.346ZM558.184 106.36C558.184 108.726 559.36 110.168 561.39 110.168C563.392 110.168 564.694 108.726 564.694 106.346C564.694 103.91 563.392 102.496 561.418 102.496C559.444 102.496 558.184 103.966 558.184 106.36ZM566.436 102.664V110H567.234V104.61C567.598 104.162 568.41 103.238 569.488 103.238C570.65 103.238 571.112 103.952 571.112 105.394V110H571.91V105.296C571.91 103.686 571.42 102.496 569.656 102.496C568.648 102.496 567.822 103.042 567.192 103.798V102.664H566.436ZM579.123 108.614C578.409 109.202 577.779 109.44 576.939 109.44C575.231 109.44 574.461 108.264 574.447 106.514H579.613C579.613 106.43 579.613 106.206 579.613 106.024C579.613 103.658 578.675 102.496 576.841 102.496C574.853 102.496 573.593 104.022 573.593 106.36C573.593 108.964 574.881 110.168 576.869 110.168C577.821 110.168 578.675 109.902 579.487 109.174L579.123 108.614ZM574.447 105.814C574.461 105.016 574.923 103.196 576.841 103.196C578.325 103.196 578.787 104.288 578.815 105.814H574.447ZM582.096 110V99.92H581.298V110H582.096ZM584.967 110V99.92H584.169V110H584.967ZM589.448 103.35V102.664H588.048V100.718H587.404L587.264 102.664L586.368 102.832V103.35H587.264V108.936C587.264 109.804 587.726 110.168 588.594 110.168C588.972 110.168 589.462 110.014 589.756 109.874L589.574 109.286C589.322 109.398 589.014 109.496 588.706 109.496C588.23 109.496 588.048 109.314 588.048 108.768V103.35H589.448ZM590.893 100.634C590.893 100.956 591.159 101.18 591.495 101.18C591.831 101.18 592.069 100.956 592.069 100.634C592.069 100.312 591.831 100.088 591.495 100.088C591.159 100.088 590.893 100.312 590.893 100.634ZM591.873 102.664H591.089V110H591.873V102.664ZM599.164 110H599.906V99.92H599.122V103.77C598.576 103.098 597.862 102.496 596.7 102.496C594.74 102.496 593.69 104.064 593.69 106.346C593.69 108.6 594.614 110.168 596.686 110.168C598.002 110.168 598.8 109.384 599.15 108.95L599.164 110ZM599.108 108.152C598.73 108.614 597.988 109.426 596.868 109.426C595.104 109.426 594.53 107.844 594.53 106.346C594.53 104.344 595.454 103.238 596.798 103.238C597.932 103.238 598.744 104.176 599.108 104.68V108.152Z" fill="#444F55"/>
<path d="M271.5 408C271.5 407.172 270.828 406.5 270 406.5C269.172 406.5 268.5 407.172 268.5 408L271.5 408ZM268.939 436.061C269.525 436.646 270.475 436.646 271.061 436.061L280.607 426.515C281.192 425.929 281.192 424.979 280.607 424.393C280.021 423.808 279.071 423.808 278.485 424.393L270 432.879L261.515 424.393C260.929 423.808 259.979 423.808 259.393 424.393C258.808 424.979 258.808 425.929 259.393 426.515L268.939 436.061ZM268.5 408L268.5 435L271.5 435L271.5 408L268.5 408Z" fill="#FF9600"/>
<path d="M53 240.5H227V301.5H270V240.5H486" stroke="#444F55"/>
<path d="M53 156.5H141V188.5H184V156.5H486" stroke="#444F55"/>
<path d="M53 324.5H441.999L442 385.504H485.5" stroke="#444F55"/>
<path d="M53 133.5H98V72.5H486" stroke="#444F55"/>
<path d="M53 519.5H98V458.5H141V489.5H184V458.5H227V519.5H270V458.5L442 458.5V519.5H485.5" stroke="#444F55"/>
<path d="M41 519.5H35" stroke="#444F55"/>
<path d="M41 385.5H35" stroke="#444F55"/>
<path d="M41 217.5H35" stroke="#444F55"/>
<path d="M41 301.5H35" stroke="#444F55"/>
<path d="M41 133.5H35" stroke="#444F55"/>
<path d="M41 489H35" stroke="#444F55"/>
<path d="M41 355H35" stroke="#444F55"/>
<path d="M41 187H35" stroke="#444F55"/>
<path d="M41 271H35" stroke="#444F55"/>
<path d="M41 103H35" stroke="#444F55"/>
<path d="M41 458.5H35" stroke="#444F55"/>
<path d="M41 324.5H35" stroke="#444F55"/>
<path d="M41 156.5H35" stroke="#444F55"/>
<path d="M41 240.5H35" stroke="#444F55"/>
<path d="M41 72.5H35" stroke="#444F55"/>
<path d="M5.274 7.552C8.496 7.552 9.828 9.316 9.828 12.538C9.828 15.796 8.496 17.506 5.274 17.506H3.096V7.552H5.274ZM1.422 6.04V19H4.95C9.324 19 11.592 17.11 11.592 12.538C11.592 8.164 9.36 6.04 5.202 6.04H1.422ZM20.7948 16.876C19.8048 17.56 18.9588 17.866 17.9328 17.866C15.9708 17.866 15.1608 16.552 15.1248 14.752H21.5688C21.5868 14.608 21.5868 14.086 21.5868 13.924C21.5868 10.81 20.2548 9.334 17.7888 9.334C15.1248 9.334 13.4328 11.296 13.4328 14.32C13.4328 17.596 15.1248 19.216 17.8068 19.216C19.1208 19.216 20.3628 18.838 21.4248 17.956L20.7948 16.876ZM15.1248 13.456C15.1788 12.538 15.7008 10.648 17.8068 10.648C19.4808 10.648 20.0208 11.926 20.0388 13.456H15.1248ZM25.3281 6.04H23.7441V19H25.3281V14.41H26.2821L29.6661 19H31.5561L27.6861 13.726L31.1061 9.55H29.2881L26.3901 13.078H25.3281V6.04ZM33.166 9.55V19H34.75V12.214C35.11 11.782 36.172 10.774 37.432 10.774C38.566 10.774 39.124 11.548 39.124 13.204V19H40.726V12.808C40.726 10.738 39.916 9.334 37.774 9.334C36.46 9.334 35.398 10.036 34.642 10.936L34.534 9.55H33.166ZM43.2001 7.012C43.2001 7.552 43.6681 7.894 44.2441 7.894C44.8381 7.894 45.2701 7.552 45.2701 7.012C45.2701 6.436 44.8381 6.076 44.2441 6.076C43.6681 6.076 43.2001 6.436 43.2001 7.012ZM45.0181 9.55H43.4341V19H45.0181V9.55ZM47.791 9.55V19H49.375V12.214C49.735 11.782 50.797 10.774 52.057 10.774C53.191 10.774 53.749 11.548 53.749 13.204V19H55.351V12.808C55.351 10.738 54.541 9.334 52.399 9.334C51.085 9.334 50.023 10.036 49.267 10.936L49.159 9.55H47.791ZM65.9971 9.55H64.6291L64.5391 10.918C64.0171 10.252 62.9911 9.334 61.5151 9.334C58.7791 9.334 57.5371 11.512 57.5371 14.338C57.5371 17.164 58.7431 19.162 61.3711 19.162C62.7571 19.162 63.8011 18.532 64.4671 17.704V18.586C64.4671 20.53 63.9271 21.394 61.8031 21.394C60.6871 21.394 59.6791 21.142 58.8871 20.872L58.5811 22.186C59.3731 22.51 60.6331 22.78 61.8751 22.78C64.6651 22.78 65.9971 21.826 65.9971 18.676V9.55ZM64.4131 16.408C63.9091 16.93 63.0451 17.758 61.7491 17.758C59.9491 17.758 59.2111 16.336 59.2111 14.248C59.2111 12.106 60.0751 10.774 61.8031 10.774C63.0091 10.774 64.0171 11.728 64.4131 12.304V16.408ZM67.9178 17.686C68.7818 18.55 70.1678 19.216 71.7518 19.216C73.9298 19.216 75.3518 18.118 75.3518 16.3C75.3518 14.788 74.4518 14.086 72.3278 13.528C70.6718 13.096 70.0418 12.808 70.0418 11.926C70.0418 11.098 70.7258 10.612 71.8598 10.612C72.7238 10.612 73.6958 10.954 74.5418 11.692L75.2798 10.738C74.3618 9.82 73.2098 9.334 71.8058 9.334C69.7538 9.334 68.3858 10.378 68.3858 12.088C68.3858 13.582 69.3038 14.302 71.4458 14.842C73.1918 15.274 73.6418 15.598 73.6418 16.48C73.6418 17.344 72.9038 17.884 71.6438 17.884C70.6718 17.884 69.5558 17.398 68.6558 16.678L67.9178 17.686ZM85.5792 9.55H84.2112L84.1212 10.918C83.5992 10.252 82.5732 9.334 81.0972 9.334C78.3612 9.334 77.1192 11.512 77.1192 14.338C77.1192 17.164 78.3252 19.162 80.9532 19.162C82.3392 19.162 83.3832 18.532 84.0492 17.704V18.586C84.0492 20.53 83.5092 21.394 81.3852 21.394C80.2692 21.394 79.2612 21.142 78.4692 20.872L78.1632 22.186C78.9552 22.51 80.2152 22.78 81.4572 22.78C84.2472 22.78 85.5792 21.826 85.5792 18.676V9.55ZM83.9952 16.408C83.4912 16.93 82.6272 17.758 81.3312 17.758C79.5312 17.758 78.7932 16.336 78.7932 14.248C78.7932 12.106 79.6572 10.774 81.3852 10.774C82.5912 10.774 83.5992 11.728 83.9952 12.304V16.408ZM89.5698 9.55H88.2558V19H89.8398V12.466C90.1638 11.782 90.8838 10.936 91.7298 10.936C92.0358 10.936 92.2878 10.954 92.5398 11.044L92.7018 9.496C92.4498 9.406 92.1258 9.334 91.8198 9.334C90.8838 9.334 90.1098 10.072 89.6778 10.99L89.5698 9.55ZM99.4733 15.166C99.4733 16.408 98.3573 17.956 96.8993 17.956C95.7833 17.956 95.2073 17.416 95.2073 16.516C95.2073 15.292 96.0893 14.716 98.0333 14.716C98.7713 14.716 99.1313 14.752 99.4733 14.806V15.166ZM101.057 12.664C101.057 10.306 99.6893 9.334 97.5653 9.334C96.2333 9.334 94.9013 9.856 93.9473 10.738L94.6853 11.71C95.5673 11.062 96.3413 10.666 97.4753 10.666C98.7353 10.666 99.4733 11.368 99.4733 12.718V13.618C98.9693 13.546 98.5553 13.51 97.9973 13.51C94.5233 13.51 93.6233 15.094 93.6233 16.48C93.6233 18.262 94.7753 19.216 96.4673 19.216C97.8713 19.216 98.9693 18.64 99.6173 17.398L99.7613 19H101.057V12.664ZM110.314 19H111.7V6.04H110.116V10.738C109.45 9.964 108.532 9.334 107.164 9.334C104.734 9.334 103.24 11.224 103.24 14.302C103.24 17.272 104.464 19.216 107.11 19.216C108.73 19.216 109.738 18.316 110.206 17.722L110.314 19ZM110.116 16.282C109.594 16.912 108.766 17.776 107.524 17.776C105.526 17.776 104.914 16.048 104.914 14.284C104.914 11.98 105.904 10.792 107.344 10.792C108.748 10.792 109.684 11.818 110.116 12.376V16.282ZM118.428 19H120.012V10.828H121.74V9.55H120.012V8.29C120.012 7.354 120.498 7.048 121.056 7.048C121.38 7.048 121.668 7.102 121.902 7.174L121.992 5.968C121.56 5.86 121.128 5.806 120.696 5.806C119.076 5.806 118.428 6.904 118.428 8.38V9.622L117.312 9.838V10.828H118.428V19ZM124.372 14.284C124.372 11.89 125.524 10.738 127.09 10.738C128.638 10.738 129.844 11.836 129.844 14.284C129.844 16.714 128.62 17.812 127.072 17.812C125.506 17.812 124.372 16.714 124.372 14.284ZM122.698 14.32C122.698 17.434 124.318 19.216 126.982 19.216C129.682 19.216 131.518 17.434 131.518 14.284C131.518 11.08 129.844 9.334 127.216 9.334C124.498 9.334 122.698 11.134 122.698 14.32ZM135.044 9.55H133.73V19H135.314V12.466C135.638 11.782 136.358 10.936 137.204 10.936C137.51 10.936 137.762 10.954 138.014 11.044L138.176 9.496C137.924 9.406 137.6 9.334 137.294 9.334C136.358 9.334 135.584 10.072 135.152 10.99L135.044 9.55ZM146.943 10.846V9.55H145.413V6.94H144.063L143.865 9.568L142.659 9.856V10.846H143.847V17.38C143.847 18.622 144.423 19.216 145.521 19.216C146.097 19.216 146.673 19.108 147.159 18.91L146.979 17.74C146.673 17.848 146.439 17.902 146.133 17.902C145.701 17.902 145.413 17.722 145.413 17.092V10.846H146.943ZM150.302 9.55H148.988V19H150.572V12.466C150.896 11.782 151.616 10.936 152.462 10.936C152.768 10.936 153.02 10.954 153.272 11.044L153.434 9.496C153.182 9.406 152.858 9.334 152.552 9.334C151.616 9.334 150.842 10.072 150.41 10.99L150.302 9.55ZM160.206 15.166C160.206 16.408 159.09 17.956 157.632 17.956C156.516 17.956 155.94 17.416 155.94 16.516C155.94 15.292 156.822 14.716 158.766 14.716C159.504 14.716 159.864 14.752 160.206 14.806V15.166ZM161.79 12.664C161.79 10.306 160.422 9.334 158.298 9.334C156.966 9.334 155.634 9.856 154.68 10.738L155.418 11.71C156.3 11.062 157.074 10.666 158.208 10.666C159.468 10.666 160.206 11.368 160.206 12.718V13.618C159.702 13.546 159.288 13.51 158.73 13.51C155.256 13.51 154.356 15.094 154.356 16.48C154.356 18.262 155.508 19.216 157.2 19.216C158.604 19.216 159.702 18.64 160.35 17.398L160.494 19H161.79V12.664ZM164.747 19H166.331V10.828H169.967V19H171.551V9.55H166.331V8.29C166.331 7.354 166.817 7.048 167.375 7.048C167.699 7.048 167.987 7.102 168.221 7.174L168.311 5.968C167.879 5.86 167.447 5.806 167.015 5.806C165.395 5.806 164.747 6.904 164.747 8.38V9.622L163.631 9.838V10.828H164.747V19ZM169.733 7.012C169.733 7.606 170.201 7.966 170.777 7.966C171.389 7.966 171.803 7.606 171.803 7.012C171.803 6.4 171.389 6.04 170.777 6.04C170.201 6.04 169.733 6.4 169.733 7.012ZM175.902 6.04H174.318V19H175.902V14.41H176.856L180.24 19H182.13L178.26 13.726L181.68 9.55H179.862L176.964 13.078H175.902V6.04ZM185.324 6.04H183.74V19H185.324V14.41H186.278L189.662 19H191.552L187.682 13.726L191.102 9.55H189.284L186.386 13.078H185.324V6.04ZM193.162 9.55V19H194.746V12.178C195.16 11.71 196.078 10.792 197.158 10.792C198.238 10.792 198.526 11.566 198.526 12.772V19H200.128V12.142C200.488 11.728 201.388 10.792 202.468 10.792C203.548 10.792 203.872 11.53 203.872 12.718V19H205.456V12.448C205.456 10.702 204.898 9.334 202.918 9.334C201.568 9.334 200.632 10.054 199.876 10.9C199.588 9.982 198.922 9.334 197.572 9.334C196.222 9.334 195.304 10.09 194.638 10.918L194.53 9.55H193.162ZM214.963 16.876C213.973 17.56 213.127 17.866 212.101 17.866C210.139 17.866 209.329 16.552 209.293 14.752H215.737C215.755 14.608 215.755 14.086 215.755 13.924C215.755 10.81 214.423 9.334 211.957 9.334C209.293 9.334 207.601 11.296 207.601 14.32C207.601 17.596 209.293 19.216 211.975 19.216C213.289 19.216 214.531 18.838 215.593 17.956L214.963 16.876ZM209.293 13.456C209.347 12.538 209.869 10.648 211.975 10.648C213.649 10.648 214.189 11.926 214.207 13.456H209.293ZM217.912 9.55V19H219.496V12.214C219.856 11.782 220.918 10.774 222.178 10.774C223.312 10.774 223.87 11.548 223.87 13.204V19H225.472V12.808C225.472 10.738 224.662 9.334 222.52 9.334C221.206 9.334 220.144 10.036 219.388 10.936L219.28 9.55H217.912ZM236.118 9.55H234.75L234.66 10.918C234.138 10.252 233.112 9.334 231.636 9.334C228.9 9.334 227.658 11.512 227.658 14.338C227.658 17.164 228.864 19.162 231.492 19.162C232.878 19.162 233.922 18.532 234.588 17.704V18.586C234.588 20.53 234.048 21.394 231.924 21.394C230.808 21.394 229.8 21.142 229.008 20.872L228.702 22.186C229.494 22.51 230.754 22.78 231.996 22.78C234.786 22.78 236.118 21.826 236.118 18.676V9.55ZM234.534 16.408C234.03 16.93 233.166 17.758 231.87 17.758C230.07 17.758 229.332 16.336 229.332 14.248C229.332 12.106 230.196 10.774 231.924 10.774C233.13 10.774 234.138 11.728 234.534 12.304V16.408ZM245.455 19H246.841V6.04H245.257V10.738C244.591 9.964 243.673 9.334 242.305 9.334C239.875 9.334 238.381 11.224 238.381 14.302C238.381 17.272 239.605 19.216 242.251 19.216C243.871 19.216 244.879 18.316 245.347 17.722L245.455 19ZM245.257 16.282C244.735 16.912 243.907 17.776 242.665 17.776C240.667 17.776 240.055 16.048 240.055 14.284C240.055 11.98 241.045 10.792 242.485 10.792C243.889 10.792 244.825 11.818 245.257 12.376V16.282ZM256.43 16.876C255.44 17.56 254.594 17.866 253.568 17.866C251.606 17.866 250.796 16.552 250.76 14.752H257.204C257.222 14.608 257.222 14.086 257.222 13.924C257.222 10.81 255.89 9.334 253.424 9.334C250.76 9.334 249.068 11.296 249.068 14.32C249.068 17.596 250.76 19.216 253.442 19.216C254.756 19.216 255.998 18.838 257.06 17.956L256.43 16.876ZM250.76 13.456C250.814 12.538 251.336 10.648 253.442 10.648C255.116 10.648 255.656 11.926 255.674 13.456H250.76Z" fill="#444F55"/>
<path d="M4.228 34.676C5.992 34.676 6.748 35.404 6.748 36.86C6.748 38.33 5.88 39.128 4.088 39.128H2.072V34.676H4.228ZM1.232 44H2.072V39.856H4.102C6.496 39.856 7.602 38.666 7.602 36.846C7.602 35.026 6.552 33.92 4.27 33.92H1.232V44ZM13.8179 42.614C13.1039 43.202 12.4739 43.44 11.6339 43.44C9.92589 43.44 9.15589 42.264 9.14189 40.514H14.3079C14.3079 40.43 14.3079 40.206 14.3079 40.024C14.3079 37.658 13.3699 36.496 11.5359 36.496C9.54789 36.496 8.28789 38.022 8.28789 40.36C8.28789 42.964 9.57589 44.168 11.5639 44.168C12.5159 44.168 13.3699 43.902 14.1819 43.174L13.8179 42.614ZM9.14189 39.814C9.15589 39.016 9.61789 37.196 11.5359 37.196C13.0199 37.196 13.4819 38.288 13.5099 39.814H9.14189ZM16.707 36.664H15.993V44H16.791V38.75C17.057 38.12 17.617 37.322 18.359 37.322C18.569 37.322 18.779 37.336 18.947 37.392L19.059 36.594C18.863 36.524 18.625 36.496 18.401 36.496C17.645 36.496 17.029 37.098 16.707 37.854V36.664ZM23.8184 33.92H23.0204V44H23.8184V40.276H24.6724L27.6124 44H28.6064L25.4004 39.912L28.2564 36.664H27.2764L24.7144 39.562H23.8184V33.92ZM30.8067 36.664H30.0087V45.092C30.0087 45.974 29.7147 46.17 29.2107 46.17C28.9727 46.17 28.7207 46.128 28.5527 46.072L28.4547 46.702C28.7487 46.814 29.0567 46.842 29.3647 46.842C30.5267 46.842 30.8067 46.184 30.8067 45.106V36.664ZM29.8267 34.634C29.8267 34.97 30.0927 35.208 30.4287 35.208C30.7647 35.208 31.0027 34.97 31.0027 34.634C31.0027 34.298 30.7647 34.06 30.4287 34.06C30.0927 34.06 29.8267 34.298 29.8267 34.634ZM32.6238 40.36C32.6238 42.096 33.2538 43.342 34.3878 43.874L34.0518 45.008H34.8218L35.1018 44.098C35.3258 44.14 35.5638 44.168 35.8298 44.168C37.8318 44.168 39.1338 42.726 39.1338 40.346C39.1338 38.582 38.4478 37.35 37.3138 36.818L37.6498 35.712H36.8518L36.5858 36.566C36.3618 36.524 36.1098 36.496 35.8578 36.496C33.8838 36.496 32.6238 37.966 32.6238 40.36ZM38.2938 40.346C38.2938 42.446 37.2158 43.426 35.8578 43.426C35.6758 43.426 35.4938 43.412 35.3258 43.37L37.0898 37.574C37.8038 38.022 38.2938 38.932 38.2938 40.346ZM33.4638 40.346C33.4638 38.26 34.4998 37.238 35.8578 37.238C36.0258 37.238 36.2078 37.266 36.3758 37.294L34.6258 43.09C33.9258 42.642 33.4638 41.746 33.4638 40.346ZM41.5898 36.664H40.8758V44H41.6738V38.75C41.9398 38.12 42.4998 37.322 43.2418 37.322C43.4518 37.322 43.6618 37.336 43.8298 37.392L43.9418 36.594C43.7458 36.524 43.5078 36.496 43.2838 36.496C42.5278 36.496 41.9118 37.098 41.5898 37.854V36.664ZM50.0347 42.614C49.3207 43.202 48.6907 43.44 47.8507 43.44C46.1427 43.44 45.3727 42.264 45.3587 40.514H50.5247C50.5247 40.43 50.5247 40.206 50.5247 40.024C50.5247 37.658 49.5867 36.496 47.7527 36.496C45.7647 36.496 44.5047 38.022 44.5047 40.36C44.5047 42.964 45.7927 44.168 47.7807 44.168C48.7327 44.168 49.5867 43.902 50.3987 43.174L50.0347 42.614ZM45.3587 39.814C45.3727 39.016 45.8347 37.196 47.7527 37.196C49.2367 37.196 49.6987 38.288 49.7267 39.814H45.3587ZM52.4338 44H53.2318V37.35H54.6178V36.664H53.2318V35.516C53.2318 34.648 53.6518 34.396 54.1138 34.396C54.3658 34.396 54.5898 34.438 54.7718 34.494L54.8278 33.864C54.5338 33.78 54.2258 33.752 53.9738 33.752C52.8398 33.752 52.4338 34.578 52.4338 35.558V36.692L51.6078 36.832V37.35H52.4338V44ZM60.8355 42.614C60.1215 43.202 59.4915 43.44 58.6515 43.44C56.9435 43.44 56.1735 42.264 56.1595 40.514H61.3255C61.3255 40.43 61.3255 40.206 61.3255 40.024C61.3255 37.658 60.3875 36.496 58.5535 36.496C56.5655 36.496 55.3055 38.022 55.3055 40.36C55.3055 42.964 56.5935 44.168 58.5815 44.168C59.5335 44.168 60.3875 43.902 61.1995 43.174L60.8355 42.614ZM56.1595 39.814C56.1735 39.016 56.6355 37.196 58.5535 37.196C60.0375 37.196 60.4995 38.288 60.5275 39.814H56.1595ZM63.8086 44V33.92H63.0106V44H63.8086ZM68.2897 37.35V36.664H66.8897V34.718H66.2457L66.1057 36.664L65.2097 36.832V37.35H66.1057V42.936C66.1057 43.804 66.5677 44.168 67.4357 44.168C67.8137 44.168 68.3037 44.014 68.5977 43.874L68.4157 43.286C68.1637 43.398 67.8557 43.496 67.5477 43.496C67.0717 43.496 66.8897 43.314 66.8897 42.768V37.35H68.2897Z" fill="#444F55"/>
</svg>
